<svg clip-rule="evenodd" fill-rule="evenodd" stroke-linejoin="round" stroke-miterlimit="1.41421" viewBox="0 0 120 120" xmlns="http://www.w3.org/2000/svg"><path d="m0 0h120v120h-120z" fill="#e0e5e6"/><path d="m4 19h112v82h-112z" fill="#fff"/><g fill="#e0e5e6"><path d="m108 28.429-1.429-1.429-8.571 8.571 1.429 1.429z"/><path d="m106.571 37 1.429-1.429-8.571-8.571-1.429 1.429z"/><path d="m37 51.014h9.851c1.641 0 2.902.425 3.781 1.273.879.849 1.318 1.9 1.318 3.153 0 1.05-.314 1.952-.941 2.703-.418.501-1.03.898-1.835 1.189 1.223.307 2.124.834 2.7 1.582.577.747.866 1.687.866 2.819 0 .921-.205 1.75-.616 2.485-.41.736-.972 1.318-1.684 1.746-.442.267-1.108.461-1.998.582-1.185.162-1.971.243-2.358.243h-9.084zm5.309 6.972h2.288c.821 0 1.392-.148 1.713-.443.322-.295.482-.721.482-1.279 0-.517-.16-.921-.482-1.212-.321-.291-.881-.437-1.678-.437h-2.323zm0 6.983h2.683c.906 0 1.545-.167 1.917-.503.371-.335.557-.786.557-1.352 0-.525-.184-.947-.552-1.267-.367-.319-1.012-.479-1.934-.479h-2.671z" fill-rule="nonzero"/><path d="m53.809 55.912h4.995l2.543 8.572 2.359-8.572h4.658l-4.891 13.762c-.557 1.568-1.127 2.627-1.707 3.176-.821.776-2.072 1.164-3.752 1.164-.682 0-1.735-.097-3.16-.291l-.372-3.443c.682.226 1.441.339 2.277.339.558 0 1.009-.133 1.353-.4.345-.266.637-.743.877-1.43z" fill-rule="nonzero"/><path d="m83 63.575h-9.479c.085.792.291 1.382.616 1.77.457.558 1.053.837 1.789.837.464 0 .906-.121 1.324-.364.256-.153.53-.424.825-.812l4.658.448c-.713 1.294-1.572 2.221-2.579 2.783s-2.451.843-4.333.843c-1.634 0-2.919-.241-3.856-.722s-1.714-1.245-2.329-2.291c-.616-1.047-.924-2.278-.924-3.692 0-2.013.618-3.642 1.853-4.886 1.235-1.245 2.941-1.868 5.117-1.868 1.765 0 3.159.279 4.182.837 1.022.558 1.8 1.366 2.334 2.425.535 1.059.802 2.437.802 4.134zm-4.809-2.364c-.093-.954-.339-1.637-.738-2.049s-.923-.619-1.574-.619c-.751 0-1.351.312-1.8.934-.287.388-.469.966-.546 1.734z" fill-rule="nonzero"/></g></svg>