<svg clip-rule="evenodd" fill-rule="evenodd" stroke-linejoin="round" stroke-miterlimit="1.41421" viewBox="0 0 120 120" xmlns="http://www.w3.org/2000/svg"><g fill="#e0e5e6"><path d="m84.211 20.001.206.004.205.007.205.009.204.011.203.015.203.016.202.02.201.021.2.025.2.026.199.029.198.032.197.034.197.036.195.039.195.041.194.044.193.046.192.048.191.05.19.053.189.055.189.058.187.059.186.062.185.064.185.066.183.069.182.07.181.073.18.075.179.077.177.079.177.081.175.083.175.086.173.087.171.089.171.092.169.093.169.096.166.097.166.099.164.101.163.103.162.106.16.106.159.109.157.111.156.112.155.115.153.116.152.118.151.119.149.122.147.123.146.125.144.126.143.129.141.129.14.132.138.133.137.135.135.137.133.138.132.14.129.141.129.143.126.144.125.146.123.147.122.149.119.151.118.152.116.153.115.155.112.156.111.157.109.159.106.16.106.162.103.163.101.164.099.166.097.166.096.169.093.169.092.171.089.171.087.173.086.175.083.175.081.177.079.177.077.179.075.18.073.181.07.182.069.183.066.185.064.185.062.186.059.187.058.189.055.189.053.19.05.191.048.192.046.193.044.194.041.195.039.195.036.197.034.197.032.198.029.199.026.2.025.2.021.201.02.202.016.203.015.203.011.204.009.205.007.205.004.206.001.207v48.008l-.001.207-.004.206-.007.205-.009.205-.011.204-.015.203-.016.203-.02.202-.021.201-.025.2-.026.2-.029.199-.032.198-.034.197-.036.197-.039.195-.041.195-.044.194-.046.193-.048.192-.05.191-.053.19-.055.189-.058.189-.059.187-.062.186-.064.185-.066.185-.069.183-.07.182-.073.181-.075.18-.077.179-.079.177-.081.177-.083.175-.086.175-.087.173-.089.171-.092.171-.093.169-.096.169-.097.166-.099.166-.101.164-.103.163-.106.162-.106.16-.109.159-.111.157-.112.156-.115.155-.116.153-.118.152-.119.151-.122.149-.123.147-.125.146-.126.144-.129.143-.129.141-.132.14-.133.138-.135.137-.137.135-.138.133-.14.132-.141.129-.143.129-.144.126-.146.125-.147.123-.149.122-.151.119-.152.118-.153.116-.155.115-.156.112-.157.111-.159.109-.16.106-.162.106-.163.103-.164.101-.166.099-.166.097-.169.096-.169.093-.171.092-.171.089-.173.087-.175.086-.175.083-.177.081-.177.079-.179.077-.18.075-.181.073-.182.07-.183.069-.185.066-.185.064-.186.062-.187.059-.189.058-.189.055-.19.053-.191.05-.192.048-.193.046-.194.044-.195.041-.195.039-.197.036-.197.034-.198.032-.199.029-.2.026-.2.025-.201.021-.202.02-.203.016-.203.015-.204.011-.205.009-.205.007-.206.004-.207.001h-48.008l-.207-.001-.206-.004-.205-.007-.205-.009-.204-.011-.203-.015-.203-.016-.202-.02-.201-.021-.2-.025-.2-.026-.199-.029-.198-.032-.197-.034-.197-.036-.195-.039-.195-.041-.194-.044-.193-.046-.192-.048-.191-.05-.19-.053-.189-.055-.189-.058-.187-.059-.186-.062-.185-.064-.185-.066-.183-.069-.182-.07-.181-.073-.18-.075-.179-.077-.177-.079-.177-.081-.175-.083-.175-.086-.173-.087-.171-.089-.171-.092-.169-.093-.169-.096-.166-.097-.166-.099-.164-.101-.163-.103-.162-.106-.16-.106-.159-.109-.157-.111-.156-.112-.155-.115-.153-.116-.152-.118-.151-.119-.149-.122-.147-.123-.146-.125-.144-.126-.143-.129-.141-.129-.14-.132-.138-.133-.137-.135-.135-.137-.133-.138-.132-.14-.129-.141-.129-.143-.126-.144-.125-.146-.123-.147-.122-.149-.119-.151-.118-.152-.116-.153-.115-.155-.112-.156-.111-.157-.109-.159-.106-.16-.106-.162-.103-.163-.101-.164-.099-.166-.097-.166-.096-.169-.093-.169-.092-.171-.089-.171-.087-.173-.086-.175-.083-.175-.081-.177-.079-.177-.077-.179-.075-.18-.073-.181-.07-.182-.069-.183-.066-.185-.064-.185-.062-.186-.059-.187-.058-.189-.055-.189-.053-.19-.05-.191-.048-.192-.046-.193-.044-.194-.041-.195-.039-.195-.036-.197-.034-.197-.032-.198-.029-.199-.026-.2-.025-.2-.021-.201-.02-.202-.016-.203-.015-.203-.011-.204-.009-.205-.007-.205-.004-.206-.001-.207v-48.008l.001-.207.004-.206.007-.205.009-.205.011-.204.015-.203.016-.203.02-.202.021-.201.025-.2.026-.2.029-.199.032-.198.034-.197.036-.197.039-.195.041-.195.044-.194.046-.193.048-.192.05-.191.053-.19.055-.189.058-.189.059-.187.062-.186.064-.185.066-.185.069-.183.07-.182.073-.181.075-.18.077-.179.079-.177.081-.177.083-.175.086-.175.087-.173.089-.171.092-.171.093-.169.096-.169.097-.166.099-.166.101-.164.103-.163.106-.162.106-.16.109-.159.111-.157.112-.156.115-.155.116-.153.118-.152.119-.151.122-.149.123-.147.125-.146.126-.144.129-.143.129-.141.132-.14.133-.138.135-.137.137-.135.138-.133.14-.132.141-.129.143-.129.144-.126.146-.125.147-.123.149-.122.151-.119.152-.118.153-.116.155-.115.156-.112.157-.111.159-.109.16-.106.162-.106.163-.103.164-.101.166-.099.166-.097.169-.096.169-.093.171-.092.171-.089.173-.087.175-.086.175-.083.177-.081.177-.079.179-.077.18-.075.181-.073.182-.07.183-.069.185-.066.185-.064.186-.062.187-.059.189-.058.189-.055.19-.053.191-.05.192-.048.193-.046.194-.044.195-.041.195-.039.197-.036.197-.034.198-.032.199-.029.2-.026.2-.025.201-.021.202-.02.203-.016.203-.015.204-.011.205-.009.205-.007.206-.004.207-.001h48.008zm-48.203 3.999-.168.001-.155.003-.155.005-.154.007-.154.009-.153.01-.151.013-.152.014-.151.016-.151.019-.148.02-.15.022-.149.023-.147.026-.146.027-.147.029-.147.031-.144.032-.144.034-.143.037-.144.038-.142.039-.142.041-.141.043-.14.045-.139.046-.139.048-.137.049-.137.051-.137.053-.135.054-.134.056-.134.058-.134.06-.132.06-.131.062-.131.065-.13.065-.127.066-.128.069-.129.071-.125.071-.125.073-.124.074-.123.076-.123.078-.121.078-.12.081-.119.081-.118.083-.119.085-.115.086-.115.087-.114.088-.113.09-.113.092-.11.092-.109.094-.109.095-.108.097-.106.097-.105.099-.103.1-.103.102-.102.103-.099.103-.1.105-.098.107-.096.107-.095.108-.093.109-.094.112-.091.112-.09.113-.088.114-.088.115-.085.116-.085.117-.083.118-.081.12-.081.12-.078.121-.078.122-.076.124-.074.124-.073.125-.072.127-.07.126-.068.127-.067.13-.066.13-.063.13-.063.132-.061.131-.059.133-.058.135-.056.135-.054.134-.052.136-.052.137-.049.138-.048.139-.047.14-.044.139-.043.141-.041.142-.04.142-.037.143-.036.143-.035.145-.032.145-.031.145-.029.148-.027.147-.026.147-.023.148-.022.149-.02.15-.019.15-.016.151-.014.151-.013.153-.01.153-.009.153-.007.154-.005.155-.003.155-.001.169v47.982l.001.169.003.155.005.155.007.154.009.153.01.153.013.153.014.151.016.151.019.15.02.15.022.149.023.148.026.147.027.147.029.148.031.145.032.145.035.145.036.143.037.143.04.142.041.142.043.141.044.139.047.14.048.139.049.138.052.137.052.136.054.134.056.135.058.135.059.133.061.131.063.132.063.13.066.13.067.13.068.127.07.126.072.127.073.125.074.124.076.124.078.122.078.121.081.12.081.12.083.118.085.117.085.116.088.115.088.114.09.113.091.112.094.112.093.109.095.108.096.107.098.107.1.105.099.103.102.103.103.102.103.1.105.099.106.097.108.097.109.095.109.094.11.092.113.092.113.09.114.088.115.087.115.086.119.085.118.083.119.081.12.081.121.078.123.078.123.076.124.074.125.073.125.071.129.071.128.069.127.066.13.065.131.065.131.062.132.06.134.06.134.058.134.056.135.054.137.053.137.051.137.049.139.048.139.046.14.045.141.043.142.041.142.039.144.038.143.037.144.034.144.032.147.031.147.029.146.027.147.026.149.023.15.022.148.02.151.019.151.016.152.014.151.013.153.01.154.009.154.007.155.005.155.003.168.001h47.984l.168-.001.155-.003.155-.005.154-.007.154-.009.153-.01.151-.013.152-.014.151-.016.151-.019.148-.02.15-.022.149-.023.147-.026.146-.027.147-.029.147-.031.144-.032.144-.034.143-.037.144-.038.142-.039.142-.041.141-.043.14-.045.139-.046.139-.048.137-.049.137-.051.137-.053.135-.054.134-.056.134-.058.134-.06.132-.06.131-.062.131-.065.13-.065.127-.066.128-.069.129-.071.125-.071.125-.073.124-.074.123-.076.123-.078.121-.078.12-.081.119-.081.118-.083.119-.085.115-.086.115-.087.114-.088.113-.09.113-.092.11-.092.109-.094.109-.095.108-.097.106-.097.105-.099.103-.1.103-.102.102-.103.099-.103.1-.105.098-.107.096-.107.095-.108.093-.109.094-.112.091-.112.09-.113.088-.114.088-.115.085-.116.085-.117.083-.118.081-.12.081-.12.078-.121.078-.122.076-.124.074-.124.073-.125.072-.127.07-.126.068-.127.067-.13.066-.13.063-.13.063-.132.061-.131.059-.133.058-.135.056-.135.054-.134.052-.136.052-.137.049-.138.048-.139.047-.14.044-.139.043-.141.041-.142.04-.142.037-.143.036-.143.035-.145.032-.145.031-.145.029-.148.027-.147.026-.147.023-.148.022-.149.02-.15.019-.15.016-.151.014-.151.013-.153.01-.153.009-.153.007-.154.005-.155.003-.155.001-.169v-47.982l-.001-.169-.003-.155-.005-.155-.007-.154-.009-.153-.01-.153-.013-.153-.014-.151-.016-.151-.019-.15-.02-.15-.022-.149-.023-.148-.026-.147-.027-.147-.029-.148-.031-.145-.032-.145-.035-.145-.036-.143-.037-.143-.04-.142-.041-.142-.043-.141-.044-.139-.047-.14-.048-.139-.049-.138-.052-.137-.052-.136-.054-.134-.056-.135-.058-.135-.059-.133-.061-.131-.063-.132-.063-.13-.066-.13-.067-.13-.068-.127-.07-.126-.072-.127-.073-.125-.074-.124-.076-.124-.078-.122-.078-.121-.081-.12-.081-.12-.083-.118-.085-.117-.085-.116-.088-.115-.088-.114-.09-.113-.091-.112-.094-.112-.093-.109-.095-.108-.096-.107-.098-.107-.1-.105-.099-.103-.102-.103-.103-.102-.103-.1-.105-.099-.106-.097-.108-.097-.109-.095-.109-.094-.11-.092-.113-.092-.113-.09-.114-.088-.115-.087-.115-.086-.119-.085-.118-.083-.119-.081-.12-.081-.121-.078-.123-.078-.123-.076-.124-.074-.125-.073-.125-.071-.129-.071-.128-.069-.127-.066-.13-.065-.131-.065-.131-.062-.132-.06-.134-.06-.134-.058-.134-.056-.135-.054-.137-.053-.137-.051-.137-.049-.139-.048-.139-.046-.14-.045-.141-.043-.142-.041-.142-.039-.144-.038-.143-.037-.144-.034-.144-.032-.147-.031-.147-.029-.146-.027-.147-.026-.149-.023-.15-.022-.148-.02-.151-.019-.151-.016-.152-.014-.151-.013-.153-.01-.154-.009-.154-.007-.155-.005-.155-.003-.168-.001z"/><path d="m30.116 71.003.116.01.115.017.114.024.113.03.11.037.108.042.106.05.102.055.099.061.095.067.092.072.087.077.082.082.077.087.072.092.067.095.061.099.055.102.049.106.043.108.037.11.03.113.024.114.017.115.01.116.003.116v5.718l.001.159.002.152.003.152.004.149.006.149.007.146.009.146.009.144.011.142.012.141.013.139.015.138.015.137.017.135.018.133.02.132.02.13.021.129.023.128.024.126.025.125.026.122.027.122.029.12.029.119.031.117.031.116.033.113.033.113.035.112.036.11.037.108.038.107.038.106.04.104.041.102.041.101.043.101.044.098.044.097.046.096.047.094.047.094.049.092.049.09.05.089.051.088.053.087.053.085.054.085.054.082.056.082.057.081.058.079.059.079.06.077.059.075.062.075.063.075.063.072.065.072.065.07.066.069.068.069.068.068.07.065.071.067.071.064.072.063.075.063.074.061.076.061.078.06.078.058.078.057.082.057.083.057.081.054.084.054.087.054.086.052.088.051.089.05.09.049.092.049.093.047.095.047.096.045.098.046.097.043.1.042.103.043.101.04.103.039.107.04.107.038.108.036.111.036.112.035.111.033.113.032.117.032.118.031.117.029.121.029.122.027.122.026.125.025.126.024.127.022.131.022.129.021.131.019.134.018.136.017.135.015.138.015.141.013.14.012.142.011.144.009.146.009.147.007.147.006.151.004.15.003.153.002.158.001h5.719l.116.003.116.01.115.017.114.024.113.03.11.037.108.042.106.05.102.055.099.061.095.067.092.072.087.077.082.082.077.087.072.092.067.095.061.099.055.102.049.106.043.108.037.11.03.113.024.114.017.115.01.116.003.116-.003.116-.01.116-.017.115-.024.114-.03.113-.037.11-.043.108-.049.105-.055.103-.061.099-.067.095-.072.091-.077.087-.082.083-.087.077-.092.072-.095.067-.099.061-.102.055-.106.049-.108.043-.11.037-.113.03-.114.024-.115.016-.116.011-.116.003h-5.726l-.184-.001-.187-.002-.187-.004-.184-.006-.185-.007-.184-.009-.181-.01-.18-.012-.181-.014-.18-.015-.175-.017-.178-.019-.177-.02-.174-.022-.173-.023-.174-.025-.173-.028-.169-.028-.17-.03-.168-.032-.168-.033-.167-.036-.165-.037-.164-.039-.165-.04-.161-.043-.16-.043-.161-.046-.16-.048-.158-.049-.155-.051-.157-.053-.154-.054-.152-.056-.153-.058-.152-.061-.148-.061-.149-.063-.148-.066-.145-.067-.145-.069-.143-.07-.143-.073-.141-.074-.14-.076-.138-.078-.137-.08-.136-.082-.133-.083-.133-.085-.133-.088-.129-.088-.127-.09-.129-.093-.125-.094-.124-.096-.122-.098-.122-.099-.118-.101-.118-.103-.117-.105-.114-.105-.113-.109-.112-.11-.109-.11-.108-.114-.107-.115-.104-.116-.103-.118-.101-.119-.099-.12-.099-.124-.095-.123-.094-.126-.093-.127-.09-.128-.089-.13-.087-.132-.085-.133-.083-.134-.082-.135-.079-.137-.079-.138-.076-.141-.074-.141-.073-.141-.07-.144-.069-.144-.067-.146-.066-.148-.063-.148-.062-.15-.06-.151-.058-.153-.056-.153-.054-.154-.053-.155-.051-.157-.049-.157-.048-.159-.046-.161-.044-.161-.042-.162-.04-.164-.039-.164-.037-.165-.035-.167-.034-.168-.032-.168-.03-.169-.029-.171-.027-.172-.025-.173-.023-.174-.022-.175-.02-.176-.019-.176-.017-.178-.015-.179-.014-.181-.012-.18-.01-.182-.009-.183-.007-.184-.006-.185-.004-.186-.002-.188-.001-.184v-5.726l.003-.116.011-.116.016-.115.024-.114.03-.113.037-.11.043-.108.049-.106.055-.102.061-.099.067-.095.072-.092.077-.087.083-.082.086-.077.092-.072.095-.067.099-.061.102-.055.106-.05.108-.042.11-.037.113-.03.114-.024.115-.017.116-.01.116-.003z"/><path d="m78.91 28.001.187.002.187.004.184.006.185.007.184.009.181.01.18.012.181.014.179.015.177.017.177.019.177.02.174.022.173.023.174.025.173.028.169.028.17.03.168.032.168.033.167.036.165.037.164.039.165.04.161.043.16.043.161.046.16.048.158.049.155.051.157.053.154.054.152.056.153.058.152.061.148.061.149.063.148.066.145.067.145.069.143.07.143.073.141.074.139.076.139.078.137.08.136.082.133.083.133.085.132.088.13.088.127.09.129.093.125.094.124.096.122.098.122.099.118.101.118.103.117.105.114.105.113.109.112.11.109.111.108.113.107.115.104.116.103.118.101.119.099.12.099.124.095.123.094.125.093.128.09.128.088.13.088.131.085.134.083.134.082.135.079.137.079.138.076.141.074.141.073.141.07.144.069.145.067.145.066.148.063.149.062.149.06.151.058.152.056.153.054.155.053.155.051.157.049.158.048.158.046.161.044.162.042.161.04.163.039.165.037.165.035.167.034.168.032.168.03.17.029.171.026.171.026.173.023.174.022.175.02.176.019.176.017.178.015.179.014.18.012.181.01.182.009.183.007.184.006.185.004.186.002.188.001.184v5.726l-.003.116-.011.116-.016.115-.024.114-.03.113-.037.11-.043.108-.049.106-.055.102-.061.099-.067.095-.072.092-.077.087-.083.082-.086.077-.092.072-.095.067-.099.061-.102.055-.106.05-.108.042-.11.037-.113.03-.114.024-.115.017-.116.01-.116.003-.116-.003-.116-.01-.115-.017-.114-.024-.113-.03-.11-.037-.108-.042-.106-.05-.102-.055-.099-.061-.095-.067-.092-.072-.086-.077-.083-.082-.077-.087-.072-.092-.067-.095-.061-.099-.055-.102-.049-.106-.043-.108-.037-.11-.03-.113-.024-.114-.016-.115-.011-.116-.003-.116v-5.718l-.001-.159-.002-.152-.003-.152-.004-.149-.006-.148-.007-.147-.009-.146-.009-.143-.011-.143-.012-.141-.013-.139-.015-.138-.015-.137-.017-.135-.018-.133-.02-.132-.02-.131-.022-.128-.022-.128-.024-.126-.025-.124-.026-.123-.027-.122-.029-.12-.029-.119-.031-.117-.031-.116-.033-.113-.033-.113-.035-.112-.036-.11-.037-.108-.037-.107-.039-.106-.04-.104-.041-.102-.042-.102-.042-.1-.044-.098-.044-.097-.046-.096-.047-.094-.047-.094-.049-.092-.049-.09-.05-.089-.051-.088-.053-.087-.053-.086-.054-.083-.054-.083-.056-.082-.057-.081-.058-.079-.059-.079-.06-.077-.059-.075-.062-.075-.063-.074-.063-.073-.065-.072-.065-.07-.066-.069-.068-.069-.068-.068-.07-.065-.071-.066-.071-.065-.073-.063-.074-.063-.074-.061-.076-.061-.078-.06-.078-.058-.078-.057-.082-.057-.082-.057-.082-.054-.084-.054-.087-.054-.086-.052-.088-.051-.089-.05-.091-.05-.091-.048-.093-.047-.095-.047-.096-.045-.098-.046-.097-.043-.1-.042-.103-.043-.101-.04-.103-.039-.107-.04-.107-.038-.108-.036-.111-.036-.112-.035-.111-.033-.113-.032-.117-.032-.118-.031-.117-.029-.121-.029-.122-.027-.122-.026-.125-.025-.126-.024-.127-.022-.131-.022-.129-.021-.131-.019-.134-.018-.136-.017-.135-.015-.138-.015-.141-.013-.14-.012-.142-.011-.144-.009-.146-.009-.147-.007-.147-.006-.151-.004-.15-.003-.153-.002-.158-.001h-5.719l-.116-.003-.116-.01-.115-.017-.114-.024-.113-.03-.11-.037-.108-.042-.106-.05-.102-.055-.099-.061-.095-.067-.092-.072-.086-.077-.083-.082-.077-.087-.072-.092-.067-.095-.061-.099-.055-.102-.049-.106-.043-.108-.037-.11-.03-.113-.024-.114-.016-.115-.011-.116-.003-.116.003-.116.011-.116.016-.115.024-.114.03-.113.037-.11.043-.108.049-.105.055-.103.061-.099.067-.095.072-.091.077-.087.083-.083.086-.077.092-.072.095-.067.099-.061.102-.055.106-.049.108-.043.11-.037.113-.03.114-.024.115-.016.116-.011.116-.003h5.726l.184.001z"/></g></svg>