<svg clip-rule="evenodd" fill-rule="evenodd" stroke-linejoin="round" stroke-miterlimit="1.41421" viewBox="0 0 120 120" xmlns="http://www.w3.org/2000/svg"><g fill="#e0e5e6"><path d="m32 76h70v8h-70z"/><path d="m32 60h80v8h-80z"/><path d="m32 44h88v8h-88z"/></g><path d="m11.142 36.001.142.003.141.004.141.006.14.008.14.01.139.012.139.013.138.015.138.016.137.019.137.02.136.022.136.023.135.025.135.027.134.028.133.03.133.031.132.034.131.034.131.037.13.037.13.04.128.041.128.042.128.044.127.046.126.047.125.049.124.05.124.051.123.053.122.054.122.056.12.057.12.059.119.06.118.062.117.062.117.065.116.065.114.067.114.068.113.07.112.071.111.072.11.074.11.075.108.076.107.077.107.079.105.079.105.081.103.083.102.083.102.085.1.086.099.087.099.088.097.089.096.091.095.092.094.092.092.094.092.095.091.096.089.097.088.099.087.099.086.1.085.102.083.102.083.103.081.105.079.105.079.107.077.107.076.108.075.11.074.11.072.111.071.112.07.113.068.114.067.114.065.116.065.117.062.117.062.118.06.119.059.12.057.12.056.122.054.122.053.123.051.124.05.124.049.125.047.126.046.127.044.128.042.128.041.128.04.13.037.13.037.131.034.131.034.132.031.133.03.133.028.134.027.135.025.135.023.136.022.136.02.137.019.137.016.138.015.138.013.139.012.139.01.14.008.14.006.141.004.141.003.142.001.142-.001.142-.003.142-.004.141-.006.141-.008.14-.01.14-.012.139-.013.139-.015.138-.016.138-.019.137-.02.137-.022.136-.023.136-.025.135-.027.135-.028.134-.03.133-.031.133-.034.132-.034.131-.037.131-.037.13-.04.13-.041.128-.042.128-.044.128-.046.127-.047.126-.049.125-.05.124-.051.124-.053.123-.054.122-.056.122-.057.12-.059.12-.06.119-.062.118-.062.117-.065.117-.065.116-.067.114-.068.114-.07.113-.071.112-.072.111-.074.11-.075.11-.076.108-.077.107-.079.107-.079.105-.081.105-.083.103-.083.102-.085.102-.086.1-.087.099-.088.099-.089.097-.091.096-.092.095-.092.094-.094.092-.095.092-.096.091-.097.089-.099.088-.099.087-.1.086-.102.085-.102.083-.103.083-.105.081-.105.079-.107.079-.107.077-.108.076-.11.075-.11.074-.111.072-.112.071-.113.07-.114.068-.114.067-.116.065-.117.065-.117.062-.118.062-.119.06-.12.059-.12.057-.122.056-.122.054-.123.053-.124.051-.124.05-.125.049-.126.047-.127.046-.128.044-.128.042-.128.041-.13.04-.13.037-.131.037-.131.034-.132.034-.133.031-.133.03-.134.028-.135.027-.135.025-.136.023-.136.022-.137.02-.137.019-.138.016-.138.015-.139.013-.139.012-.14.01-.14.008-.141.006-.141.004-.142.003-.142.001-.142-.001-.142-.003-.141-.004-.141-.006-.14-.008-.14-.01-.139-.012-.139-.013-.138-.015-.138-.016-.137-.019-.137-.02-.136-.022-.136-.023-.135-.025-.135-.027-.134-.028-.133-.03-.133-.031-.132-.034-.131-.034-.131-.037-.13-.037-.13-.04-.128-.041-.128-.042-.128-.044-.127-.046-.126-.047-.125-.049-.124-.05-.124-.051-.123-.053-.122-.054-.122-.056-.12-.057-.12-.059-.119-.06-.118-.062-.117-.062-.117-.065-.116-.065-.114-.067-.114-.068-.113-.07-.112-.071-.111-.072-.11-.074-.11-.075-.108-.076-.107-.077-.107-.079-.105-.079-.105-.081-.103-.083-.102-.083-.102-.085-.1-.086-.099-.087-.099-.088-.097-.089-.096-.091-.095-.092-.094-.092-.092-.094-.092-.095-.091-.096-.089-.097-.088-.099-.087-.099-.086-.1-.085-.102-.083-.102-.083-.103-.081-.105-.079-.105-.079-.107-.077-.107-.076-.108-.075-.11-.074-.11-.072-.111-.071-.112-.07-.113-.068-.114-.067-.114-.065-.116-.065-.117-.062-.117-.062-.118-.06-.119-.059-.12-.057-.12-.056-.122-.054-.122-.053-.123-.051-.124-.05-.124-.049-.125-.047-.126-.046-.127-.044-.128-.042-.128-.041-.128-.04-.13-.037-.13-.037-.131-.034-.131-.034-.132-.031-.133-.03-.133-.028-.134-.027-.135-.025-.135-.023-.136-.022-.136-.02-.137-.019-.137-.016-.138-.015-.138-.013-.139-.012-.139-.01-.14-.008-.14-.006-.141-.004-.141-.003-.142-.001-.142.001-.142.003-.142.004-.141.006-.141.008-.14.01-.14.012-.139.013-.139.015-.138.016-.138.019-.137.02-.137.022-.136.023-.136.025-.135.027-.135.028-.134.03-.133.031-.133.034-.132.034-.131.037-.131.037-.13.04-.13.041-.128.042-.128.044-.128.046-.127.047-.126.049-.125.05-.124.051-.124.053-.123.054-.122.056-.122.057-.12.059-.12.06-.119.062-.118.062-.117.065-.117.065-.116.067-.114.068-.114.07-.113.071-.112.072-.111.074-.11.075-.11.076-.108.077-.107.079-.107.079-.105.081-.105.083-.103.083-.102.085-.102.086-.1.087-.099.088-.099.089-.097.091-.096.092-.095.092-.094.094-.092.095-.092.096-.091.097-.089.099-.088.099-.087.1-.086.102-.085.102-.083.103-.083.105-.081.105-.079.107-.079.107-.077.108-.076.11-.075.11-.074.111-.072.112-.071.113-.07.114-.068.114-.067.116-.065.117-.065.117-.062.118-.062.119-.06.12-.059.12-.057.122-.056.122-.054.123-.053.124-.051.124-.05.125-.049.126-.047.127-.046.128-.044.128-.042.128-.041.13-.04.13-.037.131-.037.131-.034.132-.034.133-.031.133-.03.134-.028.135-.027.135-.025.136-.023.136-.022.137-.02.137-.019.138-.016.138-.015.139-.013.139-.012.14-.01.14-.008.141-.006.141-.004.142-.003.142-.001zm-.234 4-.091.001-.09.003-.089.004-.089.005-.092.007-.09.007-.086.008-.088.01-.087.01-.087.012-.088.013-.087.014-.086.015-.086.016-.087.017-.084.017-.082.019-.084.02-.086.022-.083.022-.081.022-.084.024-.083.026-.08.025-.08.027-.081.028-.082.029-.079.03-.079.03-.08.032-.079.033-.076.033-.078.034-.078.037-.076.036-.075.036-.076.039-.076.039-.074.04-.074.041-.075.042-.072.042-.072.043-.072.045-.071.045-.071.046-.07.047-.071.048-.069.049-.068.048-.067.05-.068.052-.066.051-.066.053-.066.053-.065.055-.065.055-.062.054-.062.056-.063.058-.062.058-.06.058-.061.06-.059.06-.058.06-.057.061-.058.063-.057.063-.055.063-.055.064-.054.065-.053.065-.053.067-.051.066-.052.068-.05.068-.049.067-.049.07-.047.07-.047.069-.046.072-.045.071-.045.072-.043.072-.043.073-.042.074-.04.073-.04.075-.039.076-.038.075-.037.076-.037.077-.035.076-.035.078-.033.079-.033.078-.032.079-.03.079-.03.079-.029.081-.028.081-.027.081-.026.082-.025.081-.024.082-.023.084-.022.084-.021.083-.02.083-.019.085-.018.085-.017.085-.015.086-.015.086-.014.086-.013.088-.011.087-.011.088-.01.088-.008.088-.007.089-.007.09-.005.089-.004.09-.003.091-.001.09-.001.092.001.092.001.09.003.091.004.09.005.089.007.09.007.089.008.088.01.088.011.088.011.087.013.088.014.086.015.086.015.086.017.085.018.085.019.085.02.083.021.083.022.084.023.084.024.082.025.081.026.082.027.081.028.081.029.08.03.08.03.079.032.079.033.079.033.078.035.077.036.078.036.076.036.075.039.077.039.075.04.074.041.075.041.073.043.073.043.072.045.072.045.071.046.072.047.069.047.07.049.07.05.068.049.067.052.068.052.067.051.065.054.065.054.066.055.064.056.064.056.062.057.062.058.062.059.061.058.059.06.059.061.059.062.058.063.058.062.056.062.054.065.055.066.056.065.053.066.052.066.051.067.051.068.051.069.049.07.049.067.046.07.047.073.047.071.045.072.045.073.044.073.042.073.041.074.041.074.04.076.039.074.038.077.037.078.037.075.035.077.034.08.035.077.032.078.031.081.031.081.031.08.028.079.028.082.027.082.026.081.025.082.024.085.023.083.022.082.021.085.02.085.019.084.018.085.017.086.015.086.015.085.014.088.013.089.012.087.01.088.01.088.008.09.007.088.007.089.005.091.004.092.003.089.001.092.001.092-.001.089-.001.092-.003.091-.004.089-.005.088-.007.09-.007.088-.008.088-.01.087-.01.089-.012.088-.013.085-.014.086-.015.086-.015.085-.017.084-.018.085-.019.085-.02.082-.021.084-.022.084-.023.082-.024.081-.025.082-.026.082-.027.079-.028.08-.028.081-.031.081-.031.078-.031.077-.032.08-.035.077-.034.075-.035.078-.037.077-.037.074-.038.076-.039.074-.04.074-.041.073-.041.073-.042.073-.044.072-.045.071-.045.073-.047.069-.046.068-.047.07-.049.069-.049.068-.051.067-.051.067-.051.065-.052.065-.053.066-.056.065-.055.062-.054.063-.057.062-.057.061-.058.062-.059.06-.059.058-.059.059-.061.058-.062.057-.062.056-.062.056-.064.055-.064.055-.066.053-.065.051-.065.052-.067.052-.068.049-.067.05-.068.049-.07.047-.069.047-.07.046-.072.045-.071.045-.072.043-.072.042-.073.042-.073.041-.075.04-.074.039-.075.038-.076.037-.076.037-.076.035-.078.035-.077.033-.078.033-.079.032-.078.03-.08.03-.08.029-.08.028-.08.027-.082.026-.082.025-.082.024-.082.023-.082.022-.084.021-.084.02-.083.019-.085.018-.085.017-.085.015-.086.015-.086.014-.087.013-.087.011-.087.011-.087.01-.089.008-.088.007-.089.007-.089.005-.09.004-.09.003-.091.001-.091.001-.091-.001-.091-.001-.091-.003-.091-.004-.09-.005-.09-.007-.089-.007-.089-.008-.088-.01-.089-.011-.087-.011-.087-.013-.087-.014-.087-.015-.086-.015-.086-.017-.085-.018-.085-.019-.085-.02-.083-.021-.084-.022-.083-.023-.083-.024-.082-.025-.082-.026-.083-.027-.08-.028-.081-.029-.08-.03-.08-.03-.08-.032-.078-.033-.078-.033-.079-.035-.078-.035-.076-.037-.077-.037-.076-.038-.075-.039-.076-.04-.075-.04-.073-.043-.074-.042-.073-.043-.072-.045-.072-.045-.071-.046-.072-.047-.07-.047-.069-.049-.07-.049-.067-.05-.068-.052-.068-.051-.066-.053-.067-.053-.065-.054-.065-.055-.064-.055-.063-.057-.063-.058-.063-.057-.061-.058-.06-.059-.06-.061-.06-.061-.058-.061-.058-.062-.057-.063-.057-.062-.054-.065-.055-.065-.055-.066-.054-.065-.052-.067-.051-.068-.052-.067-.05-.068-.048-.069-.049-.071-.048-.07-.047-.071-.046-.071-.045-.072-.045-.072-.043-.072-.042-.075-.042-.074-.041-.074-.04-.076-.039-.076-.039-.075-.036-.076-.037-.078-.036-.078-.034-.076-.033-.079-.033-.08-.032-.079-.03-.079-.03-.082-.029-.081-.028-.08-.027-.08-.025-.083-.026-.084-.024-.081-.022-.083-.022-.086-.022-.085-.02-.081-.019-.084-.017-.087-.017-.086-.016-.086-.015-.087-.014-.088-.013-.087-.012-.087-.01-.088-.01-.086-.008-.09-.007-.092-.007-.089-.005-.089-.004-.09-.003-.091-.001-.092-.001-.092.001z" fill="#e74b3c"/></svg>