<svg clip-rule="evenodd" fill-rule="evenodd" stroke-linejoin="round" stroke-miterlimit="1.41421" viewBox="0 0 120 120" xmlns="http://www.w3.org/2000/svg"><g fill="#e0e5e6"><path d="m98 112h-76v-104h76zm-72-100v96h68v-96z"/><path d="m34 92h42v8h-42z"/><path d="m34 76h48v8h-48z"/><path d="m34 60h52v8h-52z"/></g><path d="m60.181 22.001.18.004.18.005.179.008.179.01.178.013.177.014.177.017.176.019.175.022.175.023.174.025.173.028.173.03.172.032.171.034.17.036.17.038.169.04.168.042.167.044.167.046.165.049.165.05.164.052.163.054.162.056.162.058.16.06.159.062.159.063.157.066.157.067.155.07.155.071.153.072.153.075.151.077.151.078.149.08.148.081.147.084.146.085.145.087.144.089.143.09.141.092.14.093.139.096.138.096.137.099.135.1.134.101.133.104.132.104.13.107.129.107.128.11.126.11.125.113.124.114.122.115.121.116.12.118.118.12.116.121.115.122.114.124.113.125.11.126.11.128.107.129.107.13.104.132.104.133.101.134.1.135.099.137.096.138.096.139.093.14.092.141.09.143.089.144.087.145.085.146.084.147.081.148.08.149.078.151.077.151.075.153.072.153.071.155.07.155.067.157.066.157.063.159.062.159.06.16.058.162.056.162.054.163.052.164.05.165.049.165.046.167.044.167.042.168.04.169.038.17.036.17.034.171.032.172.03.173.028.173.025.174.023.175.022.175.019.176.017.177.014.177.013.178.01.179.008.179.005.18.004.18.001.181-.001.181-.004.18-.005.18-.008.179-.01.179-.013.178-.014.177-.017.177-.019.176-.022.175-.023.175-.025.174-.028.173-.03.173-.032.172-.034.171-.036.17-.038.17-.04.169-.042.168-.044.167-.046.167-.049.165-.05.165-.052.164-.054.163-.056.162-.058.162-.06.16-.062.159-.063.159-.066.157-.067.157-.07.155-.071.155-.072.153-.075.153-.077.151-.078.151-.08.149-.081.148-.084.147-.085.146-.087.145-.089.144-.09.143-.092.141-.093.14-.096.139-.096.138-.099.137-.1.135-.101.134-.104.133-.104.132-.107.13-.107.129-.11.128-.11.126-.113.125-.114.124-.115.122-.116.121-.118.12-.12.118-.121.116-.122.115-.124.114-.125.113-.126.11-.128.11-.129.107-.13.107-.132.104-.133.104-.134.101-.135.1-.137.099-.138.096-.139.096-.14.093-.141.092-.143.09-.144.089-.145.087-.146.085-.147.084-.148.081-.149.08-.151.078-.151.077-.153.075-.153.072-.155.071-.155.07-.157.067-.157.066-.159.063-.159.062-.16.06-.162.058-.162.056-.163.054-.164.052-.165.05-.165.049-.167.046-.167.044-.168.042-.169.04-.17.038-.17.036-.171.034-.172.032-.173.03-.173.028-.174.025-.175.023-.175.022-.176.019-.177.017-.177.014-.178.013-.179.01-.179.008-.18.005-.18.004-.181.001-.181-.001-.18-.004-.18-.005-.179-.008-.179-.01-.178-.013-.177-.014-.177-.017-.176-.019-.175-.022-.175-.023-.174-.025-.173-.028-.173-.03-.172-.032-.171-.034-.17-.036-.17-.038-.169-.04-.168-.042-.167-.044-.167-.046-.165-.049-.165-.05-.164-.052-.163-.054-.162-.056-.162-.058-.16-.06-.159-.062-.159-.063-.157-.066-.157-.067-.155-.07-.155-.071-.153-.072-.153-.075-.151-.077-.151-.078-.149-.08-.148-.081-.147-.084-.146-.085-.145-.087-.144-.089-.143-.09-.141-.092-.14-.093-.139-.096-.138-.096-.137-.099-.135-.1-.134-.101-.133-.104-.132-.104-.13-.107-.129-.107-.128-.11-.126-.11-.125-.113-.124-.114-.122-.115-.121-.116-.12-.118-.118-.12-.116-.121-.115-.122-.114-.124-.113-.125-.11-.126-.11-.128-.107-.129-.107-.13-.104-.132-.104-.133-.101-.134-.1-.135-.099-.137-.096-.138-.096-.139-.093-.14-.092-.141-.09-.143-.089-.144-.087-.145-.085-.146-.084-.147-.081-.148-.08-.149-.078-.151-.077-.151-.075-.153-.072-.153-.071-.155-.07-.155-.067-.157-.066-.157-.063-.159-.062-.159-.06-.16-.058-.162-.056-.162-.054-.163-.052-.164-.05-.165-.049-.165-.046-.167-.044-.167-.042-.168-.04-.169-.038-.17-.036-.17-.034-.171-.032-.172-.03-.173-.028-.173-.025-.174-.023-.175-.022-.175-.019-.176-.017-.177-.014-.177-.013-.178-.01-.179-.008-.179-.005-.18-.004-.18-.001-.181.001-.181.004-.18.005-.18.008-.179.01-.179.013-.178.014-.177.017-.177.019-.176.022-.175.023-.175.025-.174.028-.173.03-.173.032-.172.034-.171.036-.17.038-.17.04-.169.042-.168.044-.167.046-.167.049-.165.05-.165.052-.164.054-.163.056-.162.058-.162.06-.16.062-.159.063-.159.066-.157.067-.157.07-.155.071-.155.072-.153.075-.153.077-.151.078-.151.08-.149.081-.148.084-.147.085-.146.087-.145.089-.144.09-.143.092-.141.093-.14.096-.139.096-.138.099-.137.1-.135.101-.134.104-.133.104-.132.107-.13.107-.129.11-.128.11-.126.113-.125.114-.124.115-.122.116-.121.118-.12.12-.118.121-.116.122-.115.124-.114.125-.113.126-.11.128-.11.129-.107.13-.107.132-.104.133-.104.134-.101.135-.1.137-.099.138-.096.139-.096.14-.093.141-.092.143-.09.144-.089.145-.087.146-.085.147-.084.148-.081.149-.08.151-.078.151-.077.153-.075.153-.072.155-.071.155-.07.157-.067.157-.066.159-.063.159-.062.16-.06.162-.058.162-.056.163-.054.164-.052.165-.05.165-.049.167-.046.167-.044.168-.042.169-.04.17-.038.17-.036.171-.034.172-.032.173-.03.173-.028.174-.025.175-.023.175-.022.176-.019.177-.017.177-.014.178-.013.179-.01.179-.008.18-.005.18-.004.181-.001zm-.311 4-.13.002-.129.004-.128.006-.127.007-.13.01-.127.01-.125.012-.126.013-.124.015-.124.017-.125.018-.125.02-.123.022-.122.022-.122.024-.123.026-.12.027-.119.028-.121.031-.12.031-.116.033-.119.035-.119.036-.115.036-.115.038-.115.04-.117.042-.114.043-.112.043-.114.046-.113.047-.11.047-.111.05-.111.051-.109.052-.108.053-.109.054-.107.056-.107.057-.105.059-.107.06-.103.06-.103.062-.103.063-.102.065-.101.066-.1.066-.1.069-.1.07-.096.069-.096.071-.097.074-.095.073-.094.075-.094.077-.093.077-.091.079-.09.078-.089.08-.09.082-.087.083-.086.083-.086.084-.085.087-.084.087-.081.086-.082.089-.081.09-.079.09-.078.092-.077.092-.076.093-.076.095-.073.095-.073.096-.072.097-.07.097-.07.1-.067.099-.067.099-.066.102-.065.102-.063.103-.062.102-.061.105-.06.106-.057.105-.058.106-.056.109-.054.107-.053.109-.052.11-.051.109-.049.111-.049.112-.046.113-.045.112-.044.113-.043.114-.041.116-.04.115-.039.116-.037.117-.036.117-.034.118-.033.118-.031.12-.03.119-.029.12-.027.121-.026.122-.024.121-.023.123-.021.123-.019.124-.019.124-.016.125-.016.125-.013.126-.012.126-.011.127-.009.128-.007.128-.006.128-.004.13-.002.129-.001.13.001.13.002.13.004.129.006.128.007.128.009.128.011.127.012.126.013.126.016.125.016.125.019.124.019.123.021.124.023.122.024.122.026.122.027.121.029.12.03.119.031.12.033.118.034.118.036.117.037.117.039.116.04.115.041.115.043.115.044.113.045.112.047.113.048.112.049.11.051.111.052.109.052.108.056.109.055.108.057.106.059.106.059.105.061.104.062.103.063.103.065.102.066.101.067.101.067.098.07.099.071.099.071.096.073.096.074.096.074.093.076.093.078.093.078.092.08.091.08.089.081.088.083.088.084.087.083.085.086.084.087.084.087.082.09.083.089.08.091.079.09.078.093.077.094.077.094.075.095.073.096.073.097.072.098.07.099.07.098.067.101.067.101.066.1.064.105.064.104.063.104.06.105.059.105.059.107.057.107.056.107.054.11.053.11.053.109.05.11.049.114.049.111.046.112.045.114.044.116.043.115.042.113.039.117.039.117.037.117.036.117.034.12.033.119.032.119.029.12.029.122.027.121.026.122.024.122.023.123.021.123.019.125.019.126.016.124.016.126.013.127.012.127.011.126.009.127.007.13.005.131.005.128.002.13.001.13-.001.128-.002.131-.005.13-.005.127-.007.126-.009.127-.011.127-.012.126-.013.124-.016.126-.016.125-.019.123-.019.123-.021.122-.023.122-.024.121-.026.122-.027.12-.029.119-.029.119-.032.12-.033.117-.034.117-.036.117-.037.117-.039.113-.039.115-.042.116-.043.114-.044.112-.045.111-.046.114-.049.11-.049.109-.05.11-.053.11-.053.107-.054.107-.056.107-.057.105-.059.105-.059.104-.06.104-.063.105-.064.1-.064.101-.066.101-.067.098-.067.099-.07.098-.07.097-.072.096-.073.095-.073.094-.075.094-.077.093-.077.09-.078.091-.079.089-.08.09-.083.087-.082.087-.084.086-.084.083-.085.084-.087.083-.088.081-.088.08-.089.08-.091.078-.092.078-.093.076-.093.074-.093.074-.096.073-.096.071-.096.071-.099.07-.099.067-.098.067-.101.066-.101.065-.102.063-.103.062-.103.061-.104.059-.105.059-.106.057-.106.055-.108.056-.109.052-.108.052-.109.051-.111.049-.11.048-.112.047-.113.045-.112.044-.113.043-.115.041-.115.04-.115.039-.116.037-.117.036-.117.034-.118.033-.118.031-.12.03-.119.029-.12.027-.121.026-.122.024-.122.023-.122.021-.124.019-.123.019-.124.016-.125.016-.125.013-.126.012-.126.011-.127.009-.128.007-.128.006-.128.004-.129.002-.13.001-.13-.001-.13-.002-.129-.004-.13-.006-.128-.007-.128-.009-.128-.011-.127-.012-.126-.013-.126-.016-.125-.016-.125-.019-.124-.019-.124-.021-.123-.023-.123-.024-.121-.026-.122-.027-.121-.029-.12-.03-.119-.031-.12-.033-.118-.034-.118-.036-.117-.037-.117-.039-.116-.04-.115-.041-.116-.043-.114-.044-.113-.045-.112-.046-.113-.049-.112-.049-.111-.051-.109-.052-.11-.053-.109-.054-.107-.056-.109-.058-.106-.057-.105-.06-.106-.061-.105-.062-.102-.063-.103-.065-.102-.066-.102-.067-.099-.067-.099-.07-.1-.07-.097-.072-.097-.073-.096-.073-.095-.076-.095-.076-.093-.077-.092-.078-.092-.079-.09-.081-.09-.082-.089-.081-.086-.084-.087-.085-.087-.086-.084-.086-.083-.087-.083-.09-.082-.089-.08-.09-.078-.091-.079-.093-.077-.094-.077-.094-.075-.095-.073-.097-.074-.096-.071-.096-.069-.1-.07-.1-.069-.1-.066-.101-.066-.102-.065-.103-.063-.103-.062-.103-.06-.107-.06-.105-.059-.107-.057-.107-.056-.109-.054-.108-.053-.109-.052-.111-.051-.111-.05-.11-.047-.113-.047-.114-.046-.112-.043-.114-.043-.117-.042-.115-.04-.115-.038-.115-.036-.119-.036-.119-.035-.116-.033-.12-.031-.121-.031-.119-.028-.12-.027-.123-.026-.122-.024-.122-.022-.123-.022-.125-.02-.125-.018-.124-.017-.124-.015-.126-.013-.125-.012-.127-.01-.13-.01-.127-.007-.128-.006-.129-.004-.13-.002-.13-.001z" fill="#3497da"/></svg>