<svg clip-rule="evenodd" fill-rule="evenodd" stroke-linejoin="round" stroke-miterlimit="1.41421" viewBox="0 0 120 120" xmlns="http://www.w3.org/2000/svg"><path d="m98 112h-76v-104h76zm-72-100v96h68v-96z" fill="#e0e5e6"/><path d="m98 52h-76v-44h76zm-72-40v36h68v-36z" fill="#e0e5e6"/><path d="m34 92h8v8h-8z" fill="#3497da"/><path d="m50 92h8v8h-8z" fill="#e74b3c"/><path d="m66 92h8v8h-8z" fill="#9b59b6"/><g fill="#e0e5e6"><path d="m34 76h48v8h-48z"/><path d="m34 60h52v8h-52z"/><path d="m74.971 48h-30c0-8.279 6.722-15 15-15 8.279 0 15 6.721 15 15z"/><circle cx="59.971" cy="26.437" r="8.438"/></g></svg>