<svg clip-rule="evenodd" fill-rule="evenodd" stroke-linejoin="round" stroke-miterlimit="1.41421" viewBox="0 0 120 120" xmlns="http://www.w3.org/2000/svg"><g fill="#e0e5e6"><path d="m98 112h-76v-104h76zm-72-100v96h68v-96z"/><path d="m34 92h42v8h-42z"/><path d="m34 76h48v8h-48z"/><path d="m34 60h52v8h-52z"/><path d="m56.848 32.984-1.735 2.448-6.448-4.573-18.014 20.141-2.236-2 19.799-22.138z"/><path d="m87.867 52h-51.036l26.44-29.666zm-44.344-3h37.959l-18.293-22.065z"/></g><path d="m82.806 14.89.106.001.106.004.105.004.105.006.105.007.104.008.104.01.104.011.103.012.103.013.102.014.102.016.102.017.101.018.1.019.101.021.099.021.1.023.099.024.098.025.098.026.097.028.097.028.097.03.095.031.096.031.095.033.094.034.094.035.093.036.093.038.092.038.091.039.091.04.09.042.09.042.089.044.088.044.088.045.087.047.087.047.086.048.085.05.084.05.084.051.084.052.082.053.082.054.081.055.08.056.08.057.079.058.078.058.077.06.077.06.076.061.075.062.074.063.074.064.072.064.072.066.071.066.071.067.069.068.069.068.067.07.067.07.066.071.066.071.064.073.063.073.063.074.061.075.061.075.06.076.059.077.057.078.057.078.056.079.055.079.054.081.054.081.052.081.051.082.05.083.049.084.048.084.047.085.046.085.045.086.044.086.043.087.042.088.04.088.04.089.038.09.038.09.036.09.035.091.034.091.033.092.032.093.031.093.029.093.029.094.027.095.026.095.025.095.023.096.023.096.021.097.02.097.019.098.017.098.016.098.015.099.014.099.013.1.011.1.01.1.008.1.008.101.006.102.004.101.004.102.002.103v.102.103l-.002.102-.004.102-.004.102-.006.101-.008.101-.008.101-.01.1-.011.1-.013.1-.014.099-.015.099-.016.098-.017.098-.019.097-.02.098-.021.096-.023.097-.023.095-.025.096-.026.095-.027.094-.029.094-.029.094-.031.093-.032.092-.033.092-.034.092-.035.091-.036.09-.038.09-.038.089-.04.089-.04.089-.042.087-.043.087-.044.087-.045.086-.046.085-.047.085-.048.084-.049.083-.05.083-.051.083-.052.081-.054.081-.054.08-.055.08-.056.079-.057.078-.057.078-.059.076-.06.076-.061.076-.061.075-.063.074-.063.073-.064.072-.066.072-.066.071-.067.07-.067.069-.069.069-.069.068-.071.067-.071.066-.072.065-.072.065-.074.064-.074.063-.075.062-.076.061-.077.06-.077.059-.078.059-.079.058-.08.056-.08.056-.081.055-.082.054-.082.053-.084.052-.084.052-.084.05-.085.049-.086.049-.087.047-.087.046-.088.046-.088.044-.089.043-.09.043-.09.041-.091.041-.091.039-.092.038-.093.037-.093.036-.094.035-.094.034-.095.033-.096.032-.095.031-.097.029-.097.029-.097.027-.098.026-.098.025-.099.024-.1.023-.099.022-.101.02-.1.02-.101.018-.102.016-.102.016-.102.015-.103.013-.103.012-.104.011-.104.009-.104.009-.105.007-.105.005-.105.005-.106.003-.106.002-.106.001-.106-.001-.106-.002-.106-.003-.105-.005-.105-.005-.105-.007-.104-.009-.104-.009-.104-.011-.103-.012-.103-.013-.102-.015-.102-.016-.102-.016-.101-.018-.1-.02-.101-.02-.099-.022-.1-.023-.099-.024-.098-.025-.098-.026-.097-.027-.097-.029-.097-.029-.095-.031-.096-.032-.095-.033-.094-.034-.094-.035-.093-.036-.093-.037-.092-.038-.091-.039-.091-.041-.09-.041-.09-.043-.089-.043-.088-.044-.088-.046-.087-.046-.087-.047-.086-.049-.085-.049-.084-.05-.084-.052-.084-.052-.082-.053-.082-.054-.081-.055-.08-.056-.08-.056-.079-.058-.078-.059-.077-.059-.077-.06-.076-.061-.075-.062-.074-.063-.074-.064-.072-.065-.072-.065-.071-.066-.071-.067-.069-.068-.069-.069-.067-.069-.067-.07-.066-.071-.066-.072-.064-.072-.063-.073-.063-.074-.061-.075-.061-.076-.06-.076-.059-.076-.057-.078-.057-.078-.056-.079-.055-.08-.054-.08-.054-.081-.052-.081-.051-.083-.05-.083-.049-.083-.048-.084-.047-.085-.046-.085-.045-.086-.044-.087-.043-.087-.042-.087-.04-.089-.04-.089-.038-.089-.038-.09-.036-.09-.035-.091-.034-.092-.033-.092-.032-.092-.031-.093-.029-.094-.029-.094-.027-.094-.026-.095-.025-.096-.023-.095-.023-.097-.021-.096-.02-.098-.019-.097-.017-.098-.016-.098-.015-.099-.014-.099-.013-.1-.011-.1-.01-.1-.008-.101-.008-.101-.006-.101-.004-.102-.004-.102-.002-.102v-.103-.102l.002-.103.004-.102.004-.101.006-.102.008-.101.008-.1.01-.1.011-.1.013-.1.014-.099.015-.099.016-.098.017-.098.019-.098.02-.097.021-.097.023-.096.023-.096.025-.095.026-.095.027-.095.029-.094.029-.093.031-.093.032-.093.033-.092.034-.091.035-.091.036-.09.038-.09.038-.09.04-.089.04-.088.042-.088.043-.087.044-.086.045-.086.046-.085.047-.085.048-.084.049-.084.05-.083.051-.082.052-.081.054-.081.054-.081.055-.079.056-.079.057-.078.057-.078.059-.077.06-.076.061-.075.061-.075.063-.074.063-.073.064-.073.066-.071.066-.071.067-.07.067-.07.069-.068.069-.068.071-.067.071-.066.072-.066.072-.064.074-.064.074-.063.075-.062.076-.061.077-.06.077-.06.078-.058.079-.058.08-.057.08-.056.081-.055.082-.054.082-.053.084-.052.084-.051.084-.05.085-.05.086-.048.087-.047.087-.047.088-.045.088-.044.089-.044.09-.042.09-.042.091-.04.091-.039.092-.038.093-.038.093-.036.094-.035.094-.034.095-.033.096-.031.095-.031.097-.03.097-.028.097-.028.098-.026.098-.025.099-.024.1-.023.099-.021.101-.021.1-.019.101-.018.102-.017.102-.016.102-.014.103-.013.103-.012.104-.011.104-.01.104-.008.105-.007.105-.006.105-.004.106-.004.106-.001.106-.001zm-.176 2.999-.068.002-.069.002-.07.003-.069.004-.067.004-.067.005-.068.007-.067.007-.068.008-.066.008-.065.009-.066.01-.068.012-.065.011-.063.012-.065.014-.065.014-.063.014-.063.015-.065.017-.063.017-.061.017-.063.019-.062.018-.061.02-.063.021-.061.021-.059.021-.059.023-.061.023-.059.024-.059.025-.059.025-.057.025-.058.027-.058.027-.057.028-.056.028-.057.03-.057.029-.054.03-.054.031-.054.031-.055.033-.054.033-.052.032-.053.034-.052.035-.052.035-.052.036-.05.036-.05.036-.05.038-.049.037-.048.038-.049.04-.048.039-.047.04-.046.04-.046.04-.046.043-.046.042-.043.042-.045.043-.043.043-.043.044-.042.044-.04.044-.042.046-.041.046-.04.046-.039.046-.038.046-.038.048-.038.047-.036.048-.037.049-.035.049-.035.048-.034.05-.034.05-.033.051-.032.05-.032.052-.031.05-.03.052-.03.052-.029.053-.029.052-.027.053-.027.053-.027.054-.025.053-.025.055-.025.055-.023.054-.023.055-.022.055-.022.056-.021.056-.02.056-.019.056-.019.058-.018.056-.017.057-.017.058-.015.057-.015.059-.015.058-.013.058-.013.059-.012.059-.012.059-.01.06-.01.06-.009.06-.009.061-.007.06-.007.06-.006.062-.006.062-.004.061-.004.062-.003.063-.002.063-.001.063v.062.063l.001.063.002.063.003.063.004.062.004.061.006.061.006.063.007.059.007.061.009.061.009.06.01.06.01.059.012.06.012.059.013.058.013.059.015.058.015.059.015.057.017.057.017.057.018.057.019.057.019.057.02.056.021.055.022.056.022.056.023.055.023.054.025.055.025.054.025.054.027.054.027.053.027.052.029.053.029.052.03.053.03.051.031.051.032.051.032.051.033.05.034.051.034.05.035.048.035.048.037.049.036.048.038.048.038.048.038.046.039.046.04.046.041.046.041.045.041.045.043.045.042.043.043.043.045.043.043.042.046.042.046.042.046.041.046.04.047.039.048.04.049.04.048.037.049.038.05.037.05.037.05.036.052.036.052.035.052.034.053.034.052.033.054.033.055.033.054.031.054.031.054.029.057.03.057.03.056.028.057.028.058.027.058.026.057.026.059.025.059.025.059.023.061.024.059.022.059.022.061.021.063.021.061.019.062.019.063.019.061.017.063.017.065.016.063.015.063.015.065.014.065.013.063.012.065.012.068.011.065.01.066.01.067.008.067.008.067.007.068.006.067.006.067.004.069.004.07.003.069.002.068.001.07.001.07-.001.068-.001.069-.002.07-.003.069-.004.067-.004.067-.006.068-.006.067-.007.067-.008.067-.008.066-.01.065-.01.068-.011.065-.012.064-.012.064-.013.065-.014.063-.015.063-.015.065-.016.063-.017.061-.017.063-.019.062-.019.06-.019.064-.021.061-.021.059-.022.06-.022.06-.024.059-.023.059-.025.059-.025.057-.025.058-.027.058-.027.057-.028.056-.028.058-.03.055-.03.055-.029.054-.031.055-.031.054-.033.054-.033.053-.033.052-.034.052-.034.053-.036.05-.035.051-.036.05-.037.05-.037.05-.038.047-.037.049-.04.048-.039.047-.04.046-.04.046-.041.047-.042.044-.042.044-.042.045-.043.042-.043.042-.043.044-.046.042-.044.04-.045.041-.046.04-.046.039-.046.038-.046.039-.049.037-.047.036-.048.037-.048.035-.049.035-.049.035-.05.033-.049.033-.051.033-.051.031-.05.031-.051.03-.052.03-.053.029-.052.029-.053.027-.052.027-.053.026-.054.026-.054.025-.054.025-.055.023-.055.023-.055.022-.055.022-.055.021-.056.02-.057.019-.056.019-.056.018-.057.017-.058.017-.057.015-.057.015-.059.015-.058.013-.059.013-.058.012-.059.012-.06.01-.059.01-.061.01-.06.008-.06.007-.061.007-.06.006-.061.006-.062.004-.062.004-.062.003-.062.002-.062.001-.063v-.064-.063l-.001-.063-.002-.062-.003-.062-.004-.062-.004-.063-.006-.061-.006-.061-.007-.061-.007-.061-.008-.06-.01-.06-.01-.06-.01-.06-.012-.059-.012-.059-.013-.059-.013-.058-.015-.058-.015-.059-.015-.057-.017-.058-.017-.057-.018-.057-.019-.057-.019-.056-.02-.056-.021-.056-.022-.056-.022-.055-.023-.054-.023-.055-.025-.055-.025-.055-.026-.053-.026-.054-.027-.053-.027-.053-.029-.052-.029-.053-.03-.052-.03-.052-.031-.051-.031-.05-.033-.051-.033-.051-.033-.049-.035-.05-.035-.05-.035-.048-.037-.049-.036-.047-.037-.048-.039-.048-.038-.046-.039-.046-.04-.046-.041-.047-.041-.045-.041-.044-.043-.045-.043-.044-.042-.042-.045-.043-.044-.043-.044-.041-.047-.042-.046-.041-.046-.04-.047-.04-.048-.04-.049-.039-.047-.037-.05-.038-.05-.038-.05-.036-.051-.037-.05-.035-.053-.035-.052-.035-.052-.034-.053-.032-.054-.034-.054-.032-.055-.031-.054-.031-.055-.03-.055-.029-.058-.03-.056-.028-.057-.028-.058-.027-.058-.027-.057-.025-.059-.025-.059-.025-.059-.024-.06-.023-.06-.023-.059-.021-.061-.021-.064-.021-.06-.02-.062-.018-.063-.019-.061-.017-.063-.017-.065-.017-.063-.015-.063-.014-.065-.014-.064-.014-.064-.012-.065-.011-.068-.012-.066-.01-.065-.009-.066-.008-.068-.008-.067-.007-.068-.007-.067-.005-.067-.004-.069-.004-.07-.003-.069-.002-.068-.002h-.07z" fill="#f1c42c"/><path d="m98 52h-76v-44h76zm-72-40v36h68v-36z" fill="#e0e5e6"/></svg>