<svg clip-rule="evenodd" fill-rule="evenodd" stroke-linejoin="round" stroke-miterlimit="1.41421" viewBox="0 0 120 120" xmlns="http://www.w3.org/2000/svg"><path d="m120 100h-34v-80h34zm-30-76v72h26v-72z" fill="#e0e5e6"/><path d="m34 100h-34v-80h34zm-30-76v72h26v-72z" fill="#e0e5e6"/><path d="m90 112h-60v-104h60zm-56-100v96h52v-96z" fill="#e0e5e6"/><path d="m46 94h28v8h-28z" fill="#f1c42c"/><g fill="#e0e5e6"><path d="m40 77h40v6h-40z"/><path d="m40 65h40v6h-40z"/><path d="m40 53h40v6h-40z"/><path d="m60.129 22.001.129.002.128.004.128.006.128.007.127.009.127.011.126.012.126.013.125.015.125.017.124.018.124.02.123.021.123.023.122.024.122.026.121.027.121.029.12.03.119.032.119.033.119.034.117.036.117.037.117.039.116.04.115.041.114.043.114.044.113.046.113.046.112.048.111.05.11.051.11.052.109.053.108.055.107.056.107.057.106.058.105.06.104.061.104.062.102.063.102.064.101.066.1.067.1.068.098.069.098.07.097.072.095.072.095.074.094.075.093.076.093.077.091.078.09.079.089.08.089.081.087.083.086.083.086.084.084.086.083.086.083.087.081.089.08.089.079.09.078.091.077.093.076.093.075.094.074.095.072.095.072.097.07.098.069.098.068.1.067.1.066.101.064.102.063.102.062.104.061.104.06.105.058.106.057.107.056.107.055.108.053.109.052.11.051.11.05.111.048.112.046.113.046.113.044.114.043.114.041.115.04.116.039.117.037.117.036.117.034.119.033.119.032.119.03.12.029.121.027.121.026.122.024.122.023.123.021.123.02.124.018.124.017.125.015.125.013.126.012.126.011.127.009.127.007.128.006.128.004.128.002.129.001.129-.001.129-.002.129-.004.128-.006.128-.007.128-.009.127-.011.127-.012.126-.013.126-.015.125-.017.125-.018.124-.02.124-.021.123-.023.123-.024.122-.026.122-.027.121-.029.121-.03.12-.032.119-.033.119-.034.119-.036.117-.037.117-.039.117-.04.116-.041.115-.043.114-.044.114-.046.113-.046.113-.048.112-.05.111-.051.11-.052.11-.053.109-.055.108-.056.107-.057.107-.058.106-.06.105-.061.104-.062.104-.063.102-.064.102-.066.101-.067.1-.068.1-.069.098-.07.098-.072.097-.072.095-.074.095-.075.094-.076.093-.077.093-.078.091-.079.09-.08.089-.081.089-.083.087-.083.086-.084.086-.086.084-.086.083-.087.083-.089.081-.089.08-.09.079-.091.078-.093.077-.093.076-.094.075-.095.074-.095.072-.097.072-.098.07-.098.069-.1.068-.1.067-.101.066-.102.064-.102.063-.104.062-.104.061-.105.06-.106.058-.107.057-.107.056-.108.055-.109.053-.11.052-.11.051-.111.05-.112.048-.113.046-.113.046-.114.044-.114.043-.115.041-.116.04-.117.039-.117.037-.117.036-.119.034-.119.033-.119.032-.12.03-.121.029-.121.027-.122.026-.122.024-.123.023-.123.021-.124.02-.124.018-.125.017-.125.015-.126.013-.126.012-.127.011-.127.009-.128.007-.128.006-.128.004-.129.002-.129.001-.129-.001-.129-.002-.128-.004-.128-.006-.128-.007-.127-.009-.127-.011-.126-.012-.126-.013-.125-.015-.125-.017-.124-.018-.124-.02-.123-.021-.123-.023-.122-.024-.122-.026-.121-.027-.121-.029-.12-.03-.119-.032-.119-.033-.119-.034-.117-.036-.117-.037-.117-.039-.116-.04-.115-.041-.114-.043-.114-.044-.113-.046-.113-.046-.112-.048-.111-.05-.11-.051-.11-.052-.109-.053-.108-.055-.107-.056-.107-.057-.106-.058-.105-.06-.104-.061-.104-.062-.102-.063-.102-.064-.101-.066-.1-.067-.1-.068-.098-.069-.098-.07-.097-.072-.095-.072-.095-.074-.094-.075-.093-.076-.093-.077-.091-.078-.09-.079-.089-.08-.089-.081-.087-.083-.086-.083-.086-.084-.084-.086-.083-.086-.083-.087-.081-.089-.08-.089-.079-.09-.078-.091-.077-.093-.076-.093-.075-.094-.074-.095-.072-.095-.072-.097-.07-.098-.069-.098-.068-.1-.067-.1-.066-.101-.064-.102-.063-.102-.062-.104-.061-.104-.06-.105-.058-.106-.057-.107-.056-.107-.055-.108-.053-.109-.052-.11-.051-.11-.05-.111-.048-.112-.046-.113-.046-.113-.044-.114-.043-.114-.041-.115-.04-.116-.039-.117-.037-.117-.036-.117-.034-.119-.033-.119-.032-.119-.03-.12-.029-.121-.027-.121-.026-.122-.024-.122-.023-.123-.021-.123-.02-.124-.018-.124-.017-.125-.015-.125-.013-.126-.012-.126-.011-.127-.009-.127-.007-.128-.006-.128-.004-.128-.002-.129-.001-.129.001-.129.002-.129.004-.128.006-.128.007-.128.009-.127.011-.127.012-.126.013-.126.015-.125.017-.125.018-.124.02-.124.021-.123.023-.123.024-.122.026-.122.027-.121.029-.121.03-.12.032-.119.033-.119.034-.119.036-.117.037-.117.039-.117.04-.116.041-.115.043-.114.044-.114.046-.113.046-.113.048-.112.05-.111.051-.11.052-.11.053-.109.055-.108.056-.107.057-.107.058-.106.06-.105.061-.104.062-.104.063-.102.064-.102.066-.101.067-.1.068-.1.069-.098.07-.098.072-.097.072-.095.074-.095.075-.094.076-.093.077-.093.078-.091.079-.09.08-.089.081-.089.083-.087.083-.086.084-.086.086-.084.086-.083.087-.083.089-.081.089-.08.09-.079.091-.078.093-.077.093-.076.094-.075.095-.074.095-.072.097-.072.098-.07.098-.069.1-.068.1-.067.101-.066.102-.064.102-.063.104-.062.104-.061.105-.06.106-.058.107-.057.107-.056.108-.055.109-.053.11-.052.11-.051.111-.05.112-.048.113-.046.113-.046.114-.044.114-.043.115-.041.116-.04.117-.039.117-.037.117-.036.119-.034.119-.033.119-.032.12-.03.121-.029.121-.027.122-.026.122-.024.123-.023.123-.021.124-.02.124-.018.125-.017.125-.015.126-.013.126-.012.127-.011.127-.009.128-.007.128-.006.128-.004.129-.002.129-.001zm-.208 4-.078.001-.077.003-.079.003-.076.004-.075.006-.077.006-.076.007-.075.008-.075.009-.076.011-.076.011-.072.011-.072.013-.074.013-.076.015-.072.016-.072.016-.072.017-.07.017-.072.019-.072.021-.07.02-.07.021-.071.022-.069.024-.068.023-.068.025-.07.026-.067.026-.069.027-.067.028-.066.028-.066.03-.068.031-.065.031-.065.032-.066.033-.062.032-.063.034-.065.036-.064.037-.062.036-.061.036-.062.039-.062.038-.06.04-.06.04-.061.041-.06.042-.057.042-.059.043-.058.044-.056.044-.057.045-.055.045-.057.047-.055.048-.054.047-.053.048-.054.049-.053.05-.051.049-.053.052-.051.052-.049.051-.049.052-.05.054-.049.055-.047.053-.047.055-.046.056-.046.056-.045.057-.045.058-.043.057-.043.057-.042.059-.042.06-.041.059-.04.06-.04.061-.039.062-.038.062-.036.061-.037.063-.036.063-.034.062-.035.065-.034.065-.032.064-.032.065-.031.066-.03.066-.03.066-.029.068-.028.067-.027.067-.026.068-.026.068-.025.069-.024.069-.023.07-.022.07-.021.07-.021.07-.019.071-.019.072-.018.072-.017.071-.017.072-.015.074-.014.073-.014.073-.013.074-.012.074-.011.074-.01.075-.009.076-.008.075-.007.075-.006.077-.006.076-.004.077-.003.078-.003.078-.001.078-.001.078.001.078.001.078.003.078.003.078.004.077.006.076.006.077.007.075.008.075.009.076.01.075.011.074.012.074.013.074.014.073.014.073.015.074.017.072.017.071.018.072.019.072.019.071.021.07.021.07.022.07.023.07.024.069.025.069.026.068.026.068.027.067.028.067.029.068.03.066.03.066.031.066.032.065.032.064.034.065.035.065.034.062.036.063.037.063.036.061.038.062.039.062.04.061.04.06.041.059.042.06.042.059.043.057.043.057.045.058.045.057.046.056.046.056.047.055.047.053.049.055.05.054.049.052.049.051.051.052.053.052.051.049.053.05.054.049.053.048.054.047.055.048.057.047.055.045.057.045.056.044.058.044.059.043.057.042.06.042.061.041.06.04.06.04.062.038.062.039.061.036.062.036.064.037.065.036.063.034.062.032.066.033.065.032.065.031.068.031.066.03.066.028.067.028.069.027.067.026.07.026.068.025.068.023.069.024.071.022.07.021.07.02.072.021.072.019.07.017.072.017.072.016.072.016.076.015.074.013.072.013.072.011.076.011.076.011.075.009.075.008.076.007.077.006.075.006.076.004.079.003.077.003.078.001.079.001.079-.001.078-.001.077-.003.079-.003.076-.004.075-.006.077-.006.076-.007.075-.008.075-.009.076-.011.076-.011.072-.011.072-.013.074-.013.076-.015.072-.016.072-.016.072-.017.07-.017.072-.019.072-.021.07-.02.07-.021.071-.022.069-.024.068-.023.068-.025.07-.026.067-.026.069-.027.067-.028.066-.028.066-.03.068-.031.065-.031.065-.032.066-.033.062-.032.063-.034.065-.036.064-.037.062-.036.061-.036.062-.039.062-.038.06-.04.06-.04.061-.041.06-.042.057-.042.059-.043.058-.044.056-.044.057-.045.055-.045.057-.047.055-.048.054-.047.053-.048.054-.049.053-.05.051-.049.053-.052.051-.052.049-.051.049-.052.05-.054.049-.055.047-.053.047-.055.046-.056.046-.056.045-.057.045-.058.043-.057.043-.057.042-.059.042-.06.041-.059.04-.06.04-.061.039-.062.038-.062.036-.061.037-.063.036-.063.034-.062.035-.065.034-.065.032-.064.032-.065.031-.066.03-.066.03-.066.029-.068.028-.067.027-.067.026-.068.026-.068.025-.069.024-.069.023-.07.022-.07.021-.07.021-.07.019-.071.019-.072.018-.072.017-.071.017-.072.015-.074.014-.073.014-.073.013-.074.012-.074.011-.074.01-.075.009-.076.008-.075.007-.075.006-.077.006-.076.004-.077.003-.078.003-.078.001-.078.001-.078-.001-.078-.001-.078-.003-.078-.003-.078-.004-.077-.006-.076-.006-.077-.007-.075-.008-.075-.009-.076-.01-.075-.011-.074-.012-.074-.013-.074-.014-.073-.014-.073-.015-.074-.017-.072-.017-.071-.018-.072-.019-.072-.019-.071-.021-.07-.021-.07-.022-.07-.023-.07-.024-.069-.025-.069-.026-.068-.026-.068-.027-.067-.028-.067-.029-.068-.03-.066-.03-.066-.031-.066-.032-.065-.032-.064-.034-.065-.035-.065-.034-.062-.036-.063-.037-.063-.036-.061-.038-.062-.039-.062-.04-.061-.04-.06-.041-.059-.042-.06-.042-.059-.043-.057-.043-.057-.045-.058-.045-.057-.046-.056-.046-.056-.047-.055-.047-.053-.049-.055-.05-.054-.049-.052-.049-.051-.051-.052-.053-.052-.051-.049-.053-.05-.054-.049-.053-.048-.054-.047-.055-.048-.057-.047-.055-.045-.057-.045-.056-.044-.058-.044-.059-.043-.057-.042-.06-.042-.061-.041-.06-.04-.06-.04-.062-.038-.062-.039-.061-.036-.062-.036-.064-.037-.065-.036-.063-.034-.062-.032-.066-.033-.065-.032-.065-.031-.068-.031-.066-.03-.066-.028-.067-.028-.069-.027-.067-.026-.07-.026-.068-.025-.068-.023-.069-.024-.071-.022-.07-.021-.07-.02-.072-.021-.072-.019-.07-.017-.072-.017-.072-.016-.072-.016-.076-.015-.074-.013-.072-.013-.072-.011-.076-.011-.076-.011-.075-.009-.075-.008-.076-.007-.077-.006-.075-.006-.076-.004-.079-.003-.077-.003-.078-.001-.079-.001z"/></g></svg>