<svg clip-rule="evenodd" fill-rule="evenodd" stroke-linejoin="round" stroke-miterlimit="1.41421" viewBox="0 0 120 120" xmlns="http://www.w3.org/2000/svg"><path d="m110.152 50.001.129.002.128.004.128.006.127.007.127.009.126.011.126.012.125.013.125.015.125.017.124.018.124.02.123.021.122.023.122.024.122.026.12.027.121.028.12.03.119.032.118.033.118.034.118.036.117.037.116.039.115.039.115.042.115.042.113.044.113.046.112.047.112.048.111.049.11.05.109.052.109.054.108.054.107.056.106.057.106.058.105.06.104.06.103.062.102.063.102.065.101.065.1.067.099.068.098.069.098.07.096.071.096.072.094.074.094.075.093.075.092.077.091.078.09.079.089.08.088.081.087.082.086.083.086.084.084.086.083.086.082.087.081.088.08.089.079.09.078.091.077.092.075.093.075.094.074.094.072.096.071.096.07.098.069.098.068.099.067.1.065.101.065.102.063.102.062.103.06.104.06.105.058.106.057.106.056.107.054.108.054.109.052.109.05.11.049.111.048.112.047.112.046.113.044.113.042.115.042.115.039.115.039.116.037.117.036.118.034.118.033.118.032.119.03.12.028.121.027.12.026.122.024.122.023.122.021.123.02.124.018.124.017.125.015.125.013.125.012.126.011.126.009.127.007.127.006.128.004.128.002.129.001.128v.048l-.001.128-.002.129-.004.128-.006.128-.007.127-.009.127-.011.126-.012.126-.013.125-.015.125-.017.125-.018.124-.02.124-.021.123-.023.122-.024.122-.026.122-.027.12-.028.121-.03.12-.032.119-.033.118-.034.118-.036.118-.037.117-.039.116-.039.115-.042.115-.042.115-.044.113-.046.113-.047.112-.048.112-.049.111-.05.11-.052.109-.054.109-.054.108-.056.107-.057.106-.058.106-.06.105-.06.104-.062.103-.063.102-.065.102-.065.101-.067.1-.068.099-.069.098-.07.098-.071.096-.072.096-.074.094-.075.094-.075.093-.077.092-.078.091-.079.09-.08.089-.081.088-.082.087-.083.086-.084.086-.086.084-.086.083-.087.082-.088.081-.089.08-.09.079-.091.078-.092.077-.093.075-.094.075-.094.074-.096.072-.096.071-.098.07-.098.069-.099.068-.1.067-.101.065-.102.065-.102.063-.103.062-.104.06-.105.06-.106.058-.106.057-.107.056-.108.054-.109.054-.109.052-.11.05-.111.049-.112.048-.112.047-.113.046-.113.044-.115.042-.115.042-.115.039-.116.039-.117.037-.118.036-.118.034-.118.033-.119.032-.12.03-.121.028-.12.027-.122.026-.122.024-.122.023-.123.021-.124.02-.124.018-.125.017-.125.015-.125.013-.126.012-.126.011-.127.009-.127.007-.128.006-.128.004-.129.002-.128.001h-100.048l-.128-.001-.129-.002-.128-.004-.128-.006-.127-.007-.127-.009-.126-.011-.126-.012-.125-.013-.125-.015-.125-.017-.124-.018-.124-.02-.123-.021-.122-.023-.122-.024-.122-.026-.12-.027-.121-.028-.12-.03-.119-.032-.118-.033-.118-.034-.118-.036-.117-.037-.116-.039-.115-.039-.115-.042-.115-.042-.113-.044-.113-.046-.112-.047-.112-.048-.111-.049-.11-.05-.109-.052-.109-.054-.108-.054-.107-.056-.106-.057-.106-.058-.105-.06-.104-.06-.103-.062-.102-.063-.102-.065-.101-.065-.1-.067-.099-.068-.098-.069-.098-.07-.096-.071-.096-.072-.094-.074-.094-.075-.093-.075-.092-.077-.091-.078-.09-.079-.089-.08-.088-.081-.087-.082-.086-.083-.086-.084-.084-.086-.083-.086-.082-.087-.081-.088-.08-.089-.079-.09-.078-.091-.077-.092-.075-.093-.075-.094-.074-.094-.072-.096-.071-.096-.07-.098-.069-.098-.068-.099-.067-.1-.065-.101-.065-.102-.063-.102-.062-.103-.06-.104-.06-.105-.058-.106-.057-.106-.056-.107-.054-.108-.054-.109-.052-.109-.05-.11-.049-.111-.048-.112-.047-.112-.046-.113-.044-.113-.042-.115-.042-.115-.039-.115-.039-.116-.037-.117-.036-.118-.034-.118-.033-.118-.032-.119-.03-.12-.028-.121-.027-.12-.026-.122-.024-.122-.023-.122-.021-.123-.02-.124-.018-.124-.017-.125-.015-.125-.013-.125-.012-.126-.011-.126-.009-.127-.007-.127-.006-.128-.004-.128-.002-.129-.001-.128v-.048l.001-.128.002-.129.004-.128.006-.128.007-.127.009-.127.011-.126.012-.126.013-.125.015-.125.017-.125.018-.124.02-.124.021-.123.023-.122.024-.122.026-.122.027-.12.028-.121.03-.12.032-.119.033-.118.034-.118.036-.118.037-.117.039-.116.039-.115.042-.115.042-.115.044-.113.046-.113.047-.112.048-.112.049-.111.05-.11.052-.109.054-.109.054-.108.056-.107.057-.106.058-.106.06-.105.06-.104.062-.103.063-.102.065-.102.065-.101.067-.1.068-.099.069-.098.07-.098.071-.096.072-.096.074-.094.075-.094.075-.093.077-.092.078-.091.079-.09.08-.089.081-.088.082-.087.083-.086.084-.086.086-.084.086-.083.087-.082.088-.081.089-.08.09-.079.091-.078.092-.077.093-.075.094-.075.094-.074.096-.072.096-.071.098-.07.098-.069.099-.068.1-.067.101-.065.102-.065.102-.063.103-.062.104-.06.105-.06.106-.058.106-.057.107-.056.108-.054.109-.054.109-.052.11-.05.111-.049.112-.048.112-.047.113-.046.113-.044.115-.042.115-.042.115-.039.116-.039.117-.037.118-.036.118-.034.118-.033.119-.032.12-.03.121-.028.12-.027.122-.026.122-.024.122-.023.123-.021.124-.02.124-.018.125-.017.125-.015.125-.013.126-.012.126-.011.127-.009.127-.007.128-.006.128-.004.129-.002.128-.001h100.048zm-100.164 3.999-.091.001-.076.001-.078.003-.077.003-.076.004-.076.006-.076.006-.077.007-.077.009-.073.008-.073.01-.075.011-.074.012-.074.013-.073.013-.072.014-.072.016-.071.016-.073.017-.073.018-.069.018-.071.02-.073.022-.068.02-.069.022-.071.024-.066.022-.07.026-.069.025-.066.026-.068.027-.067.028-.067.029-.066.03-.066.03-.064.03-.067.033-.063.032-.063.032-.066.036-.064.035-.061.035-.062.036-.062.037-.061.038-.062.039-.06.039-.059.039-.06.042-.06.041-.058.043-.059.043-.057.043-.056.044-.056.044-.056.046-.056.047-.055.047-.053.046-.054.049-.054.049-.052.05-.052.05-.051.05-.05.05-.049.051-.051.054-.049.054-.049.054-.047.054-.046.053-.046.056-.047.057-.044.056-.044.056-.044.059-.043.057-.041.058-.043.06-.04.059-.04.059-.039.061-.039.061-.038.062-.037.061-.036.063-.036.064-.035.062-.034.064-.033.063-.033.065-.031.065-.031.065-.031.066-.029.066-.029.068-.027.065-.027.068-.027.068-.025.068-.025.069-.024.069-.023.069-.022.069-.021.069-.021.071-.019.071-.019.072-.018.071-.017.071-.016.072-.015.072-.015.073-.014.074-.012.073-.012.074-.011.074-.01.075-.009.074-.008.075-.007.077-.006.075-.006.077-.004.076-.003.077-.003.078-.001.078-.001.09.001.112.001.078.003.078.003.077.004.076.006.077.006.075.007.077.008.075.009.074.01.075.011.074.012.074.012.073.014.074.015.073.015.072.016.072.017.071.018.071.019.072.019.071.021.071.021.069.022.069.023.069.024.069.025.069.025.068.027.068.027.068.027.065.029.068.029.066.031.066.031.065.031.065.033.065.033.063.034.064.035.062.036.064.036.063.037.061.038.062.039.061.039.061.04.059.04.059.043.06.041.058.043.057.044.059.044.056.044.056.047.057.046.056.046.053.047.054.049.054.049.054.051.054.049.051.05.05.051.05.052.05.052.05.054.049.054.049.053.046.055.047.056.047.056.046.056.044.056.044.057.043.059.043.058.043.06.041.06.042.059.039.06.039.062.039.061.038.062.037.062.036.061.035.064.035.066.036.063.032.063.032.067.033.064.03.066.03.066.03.067.029.067.028.068.027.066.026.069.025.07.026.066.022.071.024.069.022.068.02.073.022.071.02.069.018.073.018.073.017.071.016.072.016.072.014.073.013.074.013.074.012.075.011.073.01.073.008.077.009.077.007.076.006.076.006.076.004.077.003.078.003.076.001.091.001h100.024l.091-.001.076-.001.078-.003.077-.003.076-.004.076-.006.076-.006.077-.007.077-.009.073-.008.073-.01.075-.011.074-.012.074-.013.073-.013.072-.014.072-.016.071-.016.073-.017.073-.018.069-.018.071-.02.073-.022.068-.02.069-.022.071-.024.066-.022.07-.026.069-.025.066-.026.068-.027.067-.028.067-.029.066-.03.066-.03.064-.03.067-.033.063-.032.063-.032.066-.036.064-.035.061-.035.062-.036.062-.037.061-.038.062-.039.06-.039.059-.039.06-.042.06-.041.058-.043.059-.043.057-.043.056-.044.056-.044.056-.046.056-.047.055-.047.053-.046.054-.049.054-.049.052-.05.052-.05.051-.05.05-.05.049-.051.051-.054.049-.054.049-.054.047-.054.046-.053.046-.056.047-.057.044-.056.044-.056.044-.059.043-.057.041-.058.043-.06.04-.059.04-.059.039-.061.039-.061.038-.062.037-.061.036-.063.036-.064.035-.062.034-.064.033-.063.033-.065.031-.065.031-.065.031-.066.029-.066.029-.068.027-.065.027-.068.027-.068.025-.068.025-.069.024-.069.023-.069.022-.069.021-.069.021-.071.019-.071.019-.072.018-.071.017-.071.016-.072.015-.072.015-.073.014-.074.012-.073.012-.074.011-.074.01-.075.009-.074.008-.075.007-.077.006-.075.006-.077.004-.076.003-.077.003-.078.001-.078.001-.09v-.022l-.001-.09-.001-.078-.003-.078-.003-.077-.004-.076-.006-.077-.006-.075-.007-.077-.008-.075-.009-.074-.01-.075-.011-.074-.012-.074-.012-.073-.014-.074-.015-.073-.015-.072-.016-.072-.017-.071-.018-.071-.019-.072-.019-.071-.021-.071-.021-.069-.022-.069-.023-.069-.024-.069-.025-.069-.025-.068-.027-.068-.027-.068-.027-.065-.029-.068-.029-.066-.031-.066-.031-.065-.031-.065-.033-.065-.033-.063-.034-.064-.035-.062-.036-.064-.036-.063-.037-.061-.038-.062-.039-.061-.039-.061-.04-.059-.04-.059-.043-.06-.041-.058-.043-.057-.044-.059-.044-.056-.044-.056-.047-.057-.046-.056-.046-.053-.047-.054-.049-.054-.049-.054-.051-.054-.049-.051-.05-.05-.051-.05-.052-.05-.052-.05-.054-.049-.054-.049-.053-.046-.055-.047-.056-.047-.056-.046-.056-.044-.056-.044-.057-.043-.059-.043-.058-.043-.06-.041-.06-.042-.059-.039-.06-.039-.062-.039-.061-.038-.062-.037-.062-.036-.061-.035-.064-.035-.066-.036-.063-.032-.063-.032-.067-.033-.064-.03-.066-.03-.066-.03-.067-.029-.067-.028-.068-.027-.066-.026-.069-.025-.07-.026-.066-.022-.071-.024-.069-.022-.068-.02-.073-.022-.071-.02-.069-.018-.073-.018-.073-.017-.071-.016-.072-.016-.072-.014-.073-.013-.074-.013-.074-.012-.075-.011-.073-.01-.073-.008-.077-.009-.077-.007-.076-.006-.076-.006-.076-.004-.077-.003-.078-.003-.076-.001-.091-.001z" fill="#e0e5e6"/><path d="m85 54h-75.031c-3.294 0-5.969 2.675-5.969 5.969 0 3.329 2.702 6.031 6.031 6.031h74.969z" fill="#2ecb71"/></svg>