<svg clip-rule="evenodd" fill-rule="evenodd" stroke-linejoin="round" stroke-miterlimit="1.41421" viewBox="0 0 120 120" xmlns="http://www.w3.org/2000/svg"><path d="m60.037 27-.235.001-.215.003-.216.004-.213.005-.213.006-.213.008-.212.009-.213.011-.211.012-.21.013-.213.015-.211.015-.209.017-.21.019-.209.019-.209.021-.21.023-.208.023-.205.025-.208.026-.208.027-.205.029-.207.03-.204.03-.205.033-.205.033-.204.035-.206.037-.201.037-.202.038-.204.04-.201.041-.201.042-.2.043-.201.045-.201.046-.199.047-.2.048-.197.049-.198.051-.197.052-.197.052-.198.055-.195.055-.195.056-.195.058-.195.059-.195.06-.192.061-.193.062-.193.063-.192.065-.192.066-.189.066-.19.068-.191.069-.19.071-.188.071-.188.072-.188.074-.186.074-.187.076-.186.077-.184.077-.185.079-.184.081-.184.081-.184.083-.182.083-.182.084-.182.086-.18.086-.179.087-.18.089-.179.09-.178.091-.177.091-.177.093-.178.095-.174.094-.175.096-.175.097-.173.098-.174.099-.172.1-.171.101-.173.103-.17.102-.169.104-.17.106-.169.106-.166.106-.167.108-.168.109-.166.111-.165.11-.163.111-.164.114-.163.114-.163.115-.162.116-.16.115-.16.118-.159.119-.159.119-.157.12-.157.122-.156.122-.157.123-.155.125-.154.124-.152.126-.153.127-.152.128-.151.128-.151.13-.149.13-.149.131-.147.132-.147.133-.146.134-.146.135-.145.136-.144.136-.142.136-.143.139-.141.139-.141.14-.139.14-.138.141-.138.142-.138.144-.137.144-.135.144-.133.145-.135.147-.133.147-.132.148-.131.149-.13.149-.13.15-.128.151-.127.152-.127.152-.125.153-.125.154-.124.155-.123.156-.121.155-.122.158-.12.158-.12.159-.118.159-.117.159-.116.161-.116.162-.115.162-.113.162-.112.164-.112.165-.111.164-.109.165-.109.167-.108.167-.106.167-.106.168-.105.169-.104.17-.103.171-.101.171-.101.17-.1.173-.098.173-.098.173-.096.174-.096.175-.094.175-.094.177-.093.177-.091.176-.091.178-.089.178-.088.179-.087.18-.087.181-.084.18-.085.182-.083.182-.081.182-.081.184-.08.184-.079.184-.077.184-.076.185-.076.187-.074.186-.073.187-.072.187-.071.188-.069.189-.069.19-.068.19-.066.19-.065.19-.064.191-.063.192-.062.193-.061.193-.059.192-.058.194-.057.195-.057.196-.054.194-.054.196-.052.196-.052.197-.05.197-.049.198-.047.198-.047.199-.045.199-.044.199-.043.2-.042.201-.04.201-.04.202-.038.202-.036.202-.036.203-.034.203-.033.203-.032.204-.031.205-.029.205-.028.205-.027.206-.026.207-.024.206-.023.207-.022.208-.02.208-.019.208-.018.209-.017.209-.015.209-.014.21-.013.211-.011.21-.01.211-.009.212-.007.212-.006.212-.005.212-.003.214-.002.213-.001.214.001.214.002.214.003.213.005.213.006.212.007.213.009.212.01.211.012.211.012.211.014.21.016.21.016.209.018.209.019.209.021.208.022.208.023.207.024.207.026.207.027.206.028.206.029.205.031.205.032.204.033.204.034.204.036.203.037.202.038.202.039.202.041.201.042.201.043.201.044.199.045.199.047.2.048.199.049.198.05.197.051.197.053.196.054.197.055.195.056.195.057.195.059.194.059.193.061.194.062.192.063.193.064.191.065.191.067.19.068.19.069.19.069.189.071.188.072.188.074.188.074.186.075.186.077.186.078.186.078.183.08.184.081.184.083.183.083.182.084.181.085.182.086.18.088.18.088.179.09.179.09.178.092.178.092.176.094.177.095.175.096.175.096.174.098.174.1.174.099.171.101.171.102.172.103.171.104.17.105.169.105.168.107.168.109.167.109.167.109.165.111.165.112.165.113.163.113.163.115.163.115.161.117.16.117.16.119.161.12.158.12.158.122.158.122.156.122.155.124.155.126.154.125.154.127.151.128.153.129.151.128.15.131.15.131.149.133.148.132.147.134.146.135.146.136.145.136.143.138.144.137.142.139.141.14.141.141.14.141.139.142.138.144.137.143.136.146.136.145.135.146.133.148.134.147.131.148.131.151.132.151.129.15.128.151.127.153.127.154.127.154.124.155.125.156.123.156.122.158.122.158.12.157.119.16.118.16.118.161.116.162.116.162.115.162.113.164.113.165.113.164.109.167.111.166.109.167.107.168.107.168.106.17.105.169.104.171.103.17.101.173.102.173.1.172.099.174.097.174.097.175.096.175.095.176.093.178.093.177.092.179.091.178.089.178.088.181.088.181.086.181.085.181.084.182.083.183.082.183.081.184.08.185.079.185.078.187.077.185.075.186.074.188.074.187.071.188.071.191.071.189.068.19.068.19.067.192.065.19.064.192.063.193.062.193.061.194.059.195.059.194.057.195.056.195.055.196.054.197.052.197.052.198.05.198.049.199.048.198.047.198.045.201.044.202.044.2.041.201.041.201.039.202.038.203.037.203.036.204.034.204.033.205.032.204.031.204.029.207.028.207.028.206.025.205.024.209.023.208.022.208.021.209.019.208.018.211.017.209.015.209.014.212.012.212.012.21.01.212.009.212.007.212.006.215.005.212.003.214.002.214.001.214-.001.214-.002.212-.003.215-.005.212-.006.212-.007.212-.009.21-.01.212-.012.212-.012.209-.014.209-.015.211-.017.208-.018.209-.019.208-.021.208-.022.209-.023.205-.024.206-.025.207-.028.207-.028.204-.029.204-.031.205-.032.204-.033.204-.034.203-.036.203-.037.202-.038.201-.039.201-.041.2-.041.202-.044.201-.044.198-.045.198-.047.199-.048.198-.049.198-.05.197-.052.197-.052.196-.054.195-.055.195-.056.194-.057.195-.059.194-.059.193-.061.193-.062.192-.063.19-.064.192-.065.19-.067.19-.068.189-.068.191-.071.187-.07.188-.072.188-.074.186-.074.186-.075.185-.077.186-.078.185-.079.184-.08.183-.081.183-.081.182-.084.181-.084.181-.085.182-.087.18-.087.178-.088.178-.089.179-.091.177-.092.177-.093.177-.094.175-.094.175-.096.175-.097.173-.097.172-.099.173-.1.173-.102.17-.101.171-.103.169-.104.169-.105.169-.106.168-.107.167-.107.166-.109.167-.111.164-.11.165-.112.164-.113.162-.113.162-.115.162-.116.161-.116.16-.118.16-.118.157-.119.158-.121.158-.122.156-.121.156-.123.155-.125.154-.124.154-.127.153-.127.151-.127.15-.128.151-.129.151-.132.148-.131.147-.131.148-.134.146-.133.145-.134.146-.137.144-.136.143-.138.141-.137.142-.139.141-.14.14-.141.139-.141.137-.142.138-.144.137-.144.135-.144.135-.146.134-.146.132-.147.133-.148.131-.149.131-.15.128-.149.129-.152.129-.153.125-.151.126-.153.126-.156.124-.154.122-.155.122-.156.122-.158.121-.158.118-.158.12-.161.118-.16.115-.16.116-.161.115-.163.113-.162.113-.164.112-.165.111-.164.109-.166.109-.167.109-.167.107-.168.105-.168.105-.169.104-.17.103-.171.102-.171.101-.172.099-.171.099-.174.099-.174.096-.175.096-.173.094-.176.094-.177.093-.176.092-.179.09-.177.089-.178.09-.181.087-.18.086-.179.085-.181.084-.182.083-.182.082-.183.082-.184.079-.184.079-.184.078-.185.076-.186.076-.186.074-.186.073-.188.073-.188.071-.188.069-.189.069-.19.068-.19.067-.19.065-.191.064-.191.063-.193.062-.192.061-.194.059-.192.059-.195.057-.195.056-.194.055-.196.054-.197.053-.196.051-.197.05-.197.049-.199.048-.198.047-.199.045-.2.044-.199.043-.201.042-.201.041-.201.039-.201.038-.203.037-.203.036-.203.034-.203.033-.204.032-.203.031-.206.029-.205.028-.206.027-.206.026-.206.024-.208.023-.207.022-.208.021-.208.019-.208.018-.21.016-.209.016-.21.014-.21.013-.211.011-.211.01-.211.009-.212.007-.213.006-.212.005-.213.003-.213.002-.214.001-.236 14 .044-.001.281-.003.303-.005.302-.006.301-.009.302-.01.3-.013.3-.014.301-.016.3-.018.298-.02.299-.022.299-.024.297-.025.297-.027.297-.03.297-.031.295-.032.296-.035.294-.037.295-.038.293-.04.293-.042.293-.044.291-.045.292-.048.291-.049.291-.051.289-.052.289-.055.288-.056.289-.058.287-.059.286-.062.287-.063.286-.065.284-.066.284-.069.284-.07.282-.071.282-.074.282-.075.281-.077.28-.078.279-.081.279-.081.278-.084.277-.085.277-.087.276-.088.275-.09.274-.092.274-.094.273-.094.272-.097.272-.098.27-.1.269-.102.27-.102.268-.105.267-.106.267-.108.266-.109.265-.111.264-.113.264-.114.263-.115.26-.117.261-.119.261-.12.259-.121.258-.124.258-.125.257-.125.254-.128.256-.129.254-.131.252-.132.252-.133.251-.135.25-.137.251-.138.248-.139.246-.141.247-.143.246-.143.245-.145.243-.147.243-.148.241-.149.242-.151.24-.152.238-.154.238-.154.236-.157.236-.158.236-.158.233-.161.233-.162.232-.163.231-.164.229-.167.23-.167.228-.167.224-.171.227-.171.224-.171.223-.174.223-.176.222-.176.22-.177.218-.179.218-.181.219-.181.214-.182.214-.185.215-.185.212-.186.211-.187.21-.19.21-.19.208-.191.206-.193.206-.194.205-.194.202-.197.203-.197.201-.199.2-.199.198-.201.197-.203.197-.203.195-.204.194-.205.191-.207.192-.209.191-.208.188-.211.189-.212.186-.211.184-.213.184-.216.183-.216.182-.217.18-.217.178-.22.178-.219.176-.222.175-.223.174-.222.172-.224.171-.227.171-.227.168-.227.167-.228.166-.23.164-.231.163-.232.162-.233.16-.233.159-.236.159-.235.155-.237.155-.238.154-.239.152-.239.151-.241.149-.243.149-.242.146-.244.145-.244.144-.245.141-.247.142-.248.139-.248.138-.25.137-.25.135-.251.133-.252.132-.253.131-.253.129-.255.128-.257.126-.256.125-.256.122-.259.122-.26.12-.259.119-.262.117-.262.116-.262.113-.263.113-.263.11-.265.11-.267.108-.267.106-.267.104-.268.104-.27.101-.269.1-.27.098-.272.097-.272.094-.273.094-.274.092-.274.09-.275.088-.277.087-.275.085-.277.083-.278.082-.28.081-.279.078-.28.077-.281.075-.282.074-.282.071-.282.07-.283.068-.285.067-.286.065-.285.063-.284.061-.288.06-.287.058-.289.057-.288.054-.289.053-.29.05-.29.049-.29.048-.291.045-.293.044-.294.042-.292.04-.292.038-.295.037-.297.035-.294.032-.295.032-.297.029-.296.027-.299.026-.295.023-.3.022-.299.02-.299.018-.298.016-.301.014-.301.013-.301.01-.301.009-.3.006-.304.005-.302.003-.303.001-.303-.001-.302-.003-.304-.005-.3-.006-.301-.009-.301-.01-.301-.013-.301-.014-.298-.016-.299-.018-.299-.02-.3-.022-.295-.023-.299-.026-.296-.027-.297-.029-.295-.032-.294-.032-.297-.035-.295-.037-.292-.038-.292-.04-.294-.042-.293-.044-.291-.045-.29-.048-.29-.049-.29-.05-.289-.053-.288-.054-.289-.057-.287-.058-.288-.06-.284-.061-.285-.063-.286-.065-.285-.067-.283-.068-.282-.07-.282-.071-.282-.074-.281-.075-.28-.077-.279-.078-.28-.081-.278-.082-.277-.083-.275-.085-.277-.087-.275-.088-.274-.09-.274-.092-.273-.094-.272-.094-.272-.097-.27-.098-.269-.1-.269-.101-.269-.104-.267-.104-.267-.106-.267-.108-.264-.109-.264-.111-.263-.113-.263-.113-.261-.116-.261-.117-.261-.119-.259-.12-.259-.122-.256-.123-.256-.124-.256-.126-.256-.128-.254-.129-.252-.131-.252-.132-.251-.133-.25-.135-.25-.137-.248-.138-.248-.139-.247-.142-.245-.141-.244-.144-.244-.145-.243-.147-.242-.148-.241-.149-.239-.151-.239-.152-.238-.154-.237-.155-.235-.155-.236-.159-.233-.159-.232-.159-.233-.163-.231-.163-.23-.164-.228-.166-.227-.167-.227-.168-.226-.171-.225-.171-.223-.172-.222-.174-.222-.175-.219-.176-.22-.178-.217-.178-.217-.18-.216-.182-.216-.183-.213-.184-.211-.184-.212-.186-.211-.189-.208-.188-.208-.19-.208-.192-.205-.192-.205-.195-.202-.194-.203-.197-.201-.197-.199-.198-.199-.2-.197-.201-.197-.203-.195-.203-.193-.204-.193-.206-.191-.206-.19-.208-.19-.21-.187-.21-.186-.211-.185-.212-.185-.214-.182-.215-.181-.215-.181-.217-.179-.219-.177-.218-.176-.22-.176-.222-.174-.223-.172-.223-.171-.224-.17-.226-.167-.226-.167-.227-.167-.229-.164-.23-.163-.231-.162-.232-.161-.233-.158-.233-.158-.235-.157-.237-.154-.236-.154-.238-.152-.238-.151-.241-.149-.241-.148-.241-.147-.243-.144-.243-.144-.245-.143-.246-.141-.246-.139-.247-.138-.249-.137-.25-.135-.25-.133-.251-.133-.252-.13-.253-.129-.253-.128-.256-.126-.255-.124-.257-.124-.257-.121-.258-.12-.259-.119-.261-.117-.26-.115-.262-.114-.262-.113-.264-.111-.265-.109-.263-.108-.267-.106-.267-.104-.267-.104-.268-.101-.27-.1-.269-.098-.271-.097-.271-.094-.272-.094-.273-.092-.274-.09-.274-.088-.276-.087-.275-.085-.276-.084-.278-.082-.278-.08-.278-.078-.28-.077-.28-.075-.281-.074-.282-.071-.282-.07-.283-.069-.283-.066-.284-.065-.285-.063-.285-.062-.287-.059-.286-.058-.287-.056-.288-.055-.288-.053-.29-.05-.29-.049-.29-.048-.291-.045-.291-.044-.292-.042-.293-.04-.293-.038-.294-.037-.294-.035-.295-.032-.295-.031-.295-.03-.297-.027-.296-.025-.298-.024-.298-.022-.298-.02-.299-.018-.299-.016-.299-.014-.3-.013-.301-.01-.3-.009-.302-.006-.302-.005-.301-.003-.303-.001-.303.001-.303.003-.302.005-.301.006-.301.009-.302.01-.3.013-.3.014-.3.016-.299.018-.298.02-.299.022-.298.023-.297.026-.296.027-.297.029-.296.031-.295.033-.295.034-.295.037-.293.038-.293.04-.294.042-.292.043-.291.046-.291.047-.291.049-.29.051-.289.052-.289.054-.288.056-.287.058-.287.06-.287.061-.285.063-.286.065-.284.066-.284.068-.283.07-.283.072-.282.073-.281.075-.28.077-.28.078-.28.08-.277.082-.277.083-.278.085-.276.087-.276.088-.274.09-.275.091-.273.094-.273.095-.272.096-.271.098-.27.099-.269.102-.269.102-.268.105-.268.106-.266.107-.265.109-.265.111-.264.113-.264.113-.262.115-.26.117-.261.119-.26.12-.259.121-.258.123-.257.124-.256.126-.256.128-.255.129-.253.131-.254.131-.251.133-.25.135-.251.136-.249.138-.248.14-.248.14-.246.142-.245.144-.245.145-.244.146-.242.148-.241.149-.241.15-.239.153-.239.153-.238.154-.236.157-.236.157-.235.159-.233.16-.232.162-.234.163-.23.164-.229.165-.228.168-.228.168-.227.169-.225.171-.224.172-.223.174-.223.175-.221.175-.22.178-.219.179-.218.18-.217.181-.216.183-.214.183-.213.186-.213.186-.211.187-.21.188-.209.19-.207.192-.208.193-.206.193-.204.194-.202.196-.202.198-.202.198-.2.2-.198.2-.197.202-.196.204-.196.205-.194.205-.192.206-.191.208-.19.209-.189.21-.188.212-.186.212-.185.213-.184.214-.183.216-.181.216-.18.219-.179.219-.178.22-.176.22-.175.223-.174.223-.172.225-.171.225-.17.227-.169.227-.167.23-.166.229-.164.23-.163.231-.162.232-.16.236-.16.235-.158.235-.156.236-.154.237-.154.241-.153.239-.151.239-.148.243-.149.244-.147.241-.144.246-.145.246-.142.246-.141.248-.14.247-.137.25-.137.251-.136.25-.133.252-.132.254-.131.253-.13.255-.127.255-.126.257-.125.258-.124.258-.121.259-.121.261-.119.259-.117.262-.115.262-.114.263-.113.266-.112.265-.109.265-.108.268-.107.266-.104.269-.104.27-.101.269-.1.269-.098.272-.097.273-.096.273-.094.274-.091.274-.091.275-.088.277-.088.276-.085.276-.084.279-.082.279-.081.28-.079.279-.076.281-.076.282-.074.282-.072.284-.071.284-.068.283-.067.285-.065.284-.064.287-.062.288-.06.288-.058.287-.057.289-.055.291-.053.288-.051.29-.049.291-.048.291-.046.294-.045.292-.042.294-.041.293-.038.293-.037.297-.036.296-.033.295-.031.296-.03.297-.028.298-.026.299-.025.298-.022.297-.02.3-.019.301-.017.299-.015.302-.013.301-.011.302-.009.302-.007.301-.006.303-.003.283-.002.074 14z" fill="#e0e5e6"/><path d="m60.302 13.001.302.003.302.005.301.006.302.009.299.01.302.013.299.014.298.016.3.018.297.02.299.022.297.023.297.026.296.027.296.029.296.031.293.033.295.034.294.037.294.038.292.04.292.042.292.043.291.046.292.047.29.049.287.051.289.052.29.055.288.056.284.057.287.06.288.061.284.063.284.065.283.066.283.068.284.07.281.072.282.073.28.075.279.076.279.079.281.08.276.082.276.083.277.085.275.087.276.088.274.09.273.091.272.094.272.094.271.097.271.098.27.1.268.1.268.103.268.105.266.106.265.107.265.11.264.11.263.112.263.115.26.114.261.117.26.119.258.119.26.122.256.123.255.124.257.126.256.128.253.129.252.13.252.132.251.133.249.135.25.137.249.138.245.138.248.141.246.142.244.144.243.145.243.146.242.148.24.149.239.15.238.152.239.154.237.155.236.156.234.157.234.159.233.161.231.161.23.162.229.164.23.167.228.167.225.168.225.169.225.171.223.172.222.174.222.175.221.176.218.177.217.178.218.181.216.182.215.182.212.183.212.184.212.187.211.188.209.189.208.19.206.191.204.191.205.194.204.196.202.196.201.197.2.198.198.2.197.201.197.202.195.203.194.204.192.206.19.205.191.209.189.209.188.21.187.212.184.211.184.214.183.214.181.216.18.217.179.218.178.219.176.219.175.222.174.222.172.223.171.225.17.225.169.227.167.227.165.228.165.23.163.231.162.232.16.232.16.235.158.235.155.234.156.237.154.238.152.239.151.24.149.241.148.241.146.242.146.245.144.244.142.245.141.247.139.247.138.248.137.25.135.25.134.252.132.252.131.252.129.254.128.255.126.255.125.257.124.257.122.259.12.259.119.26.117.261.116.262.114.262.112.263.111.265.11.265.108.265.106.266.106.269.102.268.102.268.1.27.099.271.097.272.095.272.093.272.093.275.09.274.088.275.088.276.085.277.084.277.082.278.081.279.078.279.077.28.076.281.074.283.072.282.07.282.069.284.067.283.065.286.064.286.062.286.06.286.058.288.057.289.054.288.054.289.051.29.049.291.048.291.046.291.044.292.043.293.041.293.038.295.037.294.036.295.033.295.031.296.03.296.028.297.026.298.024.298.023.298.02.299.019.3.017.3.015.3.013.301.011.3.009.302.007.303.006.302.003.303.002.28-14 .078-.001-.238-.003-.215-.004-.214-.005-.213-.006-.213-.008-.214-.009-.213-.011-.212-.012-.212-.013-.211-.014-.21-.016-.212-.017-.209-.019-.21-.019-.209-.021-.209-.023-.209-.023-.208-.025-.208-.026-.207-.027-.206-.029-.206-.029-.206-.032-.206-.032-.205-.033-.204-.035-.205-.036-.203-.038-.203-.038-.203-.04-.202-.041-.202-.042-.202-.043-.201-.045-.199-.046-.2-.047-.2-.048-.199-.049-.198-.051-.199-.052-.196-.052-.197-.055-.197-.055-.196-.057-.196-.057-.195-.059-.194-.06-.194-.061-.193-.062-.194-.064-.192-.064-.191-.065-.192-.068-.192-.067-.189-.069-.189-.07-.19-.072-.189-.073-.189-.072-.186-.075-.187-.076-.187-.077-.186-.078-.185-.079-.185-.08-.184-.081-.183-.082-.183-.084-.183-.084-.182-.085-.181-.087-.181-.087-.179-.089-.18-.09-.179-.091-.178-.092-.178-.093-.177-.093-.176-.095-.176-.096-.174-.097-.175-.098-.174-.099-.172-.1-.174-.102-.172-.101-.169-.103-.171-.105-.171-.104-.169-.106-.168-.107-.168-.108-.167-.108-.165-.112-.168-.11-.165-.112-.163-.113-.165-.114-.162-.114-.162-.116-.162-.117-.161-.117-.16-.119-.159-.119-.159-.121-.158-.121-.157-.122-.157-.123-.154-.124-.156-.125-.154-.126-.153-.127-.153-.127-.151-.129-.151-.129-.15-.132-.151-.13-.148-.132-.147-.133-.147-.133-.146-.136-.147-.135-.144-.137-.144-.137-.143-.138-.142-.139-.141-.139-.14-.141-.141-.141-.138-.143-.138-.142-.137-.143-.136-.146-.136-.146-.135-.146-.133-.147-.133-.148-.132-.147-.13-.15-.13-.152-.131-.151-.128-.151-.127-.152-.126-.154-.127-.154-.125-.154-.123-.156-.123-.156-.122-.157-.121-.157-.12-.159-.119-.16-.119-.16-.118-.159-.115-.162-.116-.163-.114-.163-.115-.163-.112-.164-.111-.166-.111-.165-.11-.166-.108-.165-.107-.168-.107-.17-.106-.169-.105-.169-.104-.17-.102-.172-.103-.171-.1-.172-.099-.172-.099-.175-.098-.174-.097-.174-.095-.175-.095-.177-.093-.176-.093-.178-.091-.178-.091-.178-.089-.177-.088-.181-.087-.181-.087-.179-.084-.183-.085-.182-.083-.182-.081-.184-.082-.183-.079-.184-.078-.186-.078-.184-.076-.186-.076-.187-.074-.187-.073-.187-.072-.189-.071-.188-.07-.189-.068-.19-.068-.19-.066-.191-.065-.192-.064-.192-.063-.191-.062-.194-.061-.192-.059-.195-.058-.195-.058-.193-.055-.195-.055-.197-.054-.196-.052-.197-.052-.198-.05-.196-.048-.199-.048-.199-.047-.2-.045-.2-.045-.198-.042-.2-.042-.204-.041-.201-.039-.2-.037-.202-.037-.205-.036-.203-.035-.202-.032-.205-.032-.203-.031-.206-.029-.206-.028-.205-.027-.206-.026-.206-.024-.208-.023-.208-.022-.208-.02-.208-.019-.209-.018-.209-.017-.209-.015-.21-.014-.21-.013-.211-.011-.212-.01-.21-.009-.213-.007-.212-.006-.212-.005-.213-.003-.214-.002-.238-.001.048-14 .278.001z" fill="#9b59b6"/></svg>