<svg clip-rule="evenodd" fill-rule="evenodd" stroke-linecap="round" stroke-miterlimit="3" viewBox="0 0 120 120" xmlns="http://www.w3.org/2000/svg"><g fill="none" stroke="#e0e5e6" stroke-dasharray="4 4 0 0" stroke-width="2"><path d="m23.137 96h-17.137l31.01-37.864 11.486 10.022"/><path d="m23.417 96 41.748-48.544 39.835 48.544z"/><circle cx="99" cy="45" r="13"/></g><path d="m90.616 76.064-.207.436h-51.263l-.223-.481 26.261-30.902zm-45.615-2.564h39.625l-19.48-23.705z" fill="#e0e5e6"/><path d="m49.575 68.071-7.457 8.429h-22.17l-.226-.492 17.179-20.051zm-23.754 5.429h14.946l4.649-5.255-8.298-7.93z" fill="#e0e5e6"/><path d="m113.22 47.85-.048.225-.034.154-.036.154-.038.153-.039.152-.04.151-.043.152-.044.15-.045.149-.047.149-.049.148-.05.148-.052.146-.053.147-.055.145-.056.144-.058.144-.059.143-.061.142-.062.142-.063.14-.065.14-.067.139-.067.139-.07.137-.07.136-.072.136-.074.135-.075.134-.076.133-.078.132-.078.131-.08.13-.082.13-.083.129-.084.127-.086.127-.086.125-.088.125-.09.124-.09.122-.092.122-.093.121-.094.119-.096.119-.096.118-.098.116-.099.116-.101.115-.101.113-.103.112-.104.112-.105.11-.105.108-.107.109-.109.107-.109.105-.111.105-.111.103-.113.102-.114.102-.115.099-.116.099-.116.097-.118.097-.119.095-.12.094-.121.092-.122.092-.123.09-.124.089-.125.088-.126.085-.127.086-.128.084-.128.081-.13.082-.131.08-.131.078-.132.077-.133.076-.134.074-.136.073-.136.072-.136.07-.137.069-.139.067-.139.066-.14.064-.141.064-.142.061-.142.06-.144.059-.143.057-.144.055-.146.055-.146.052-.147.052-.148.049-.148.048-.149.047-.149.044-.151.044-.152.042-.151.04-.151.038-.154.038-.154.035-.153.033-.155.032-.156.031-.156.029-.155.027-.157.025-.158.024-.158.022-.159.02-.159.019-.159.016-.161.016-.16.013-.161.012-.162.009-.161.009-.163.006-.163.004-.163.003-.163.001-.187-.001-.186-.004-.186-.006-.186-.008-.184-.01-.185-.013-.183-.015-.183-.018-.183-.02-.181-.021-.181-.025-.181-.026-.179-.029-.179-.031-.178-.033-.178-.035-.177-.037-.175-.04-.175-.041-.175-.044-.173-.046-.172-.048-.172-.05-.171-.052-.17-.054-.169-.056-.168-.058-.167-.06-.166-.062-.166-.064-.164-.066-.163-.068-.162-.07-.161-.071-.16-.074-.159-.075-.159-.078-.156-.079-.156-.081-.155-.083-.153-.085-.153-.086-.151-.088-.15-.09-.149-.092-.148-.094-.146-.095-.145-.097-.144-.098-.143-.101-.141-.101-.14-.104-.14-.105-.137-.107-.136-.108-.135-.11-.134-.112-.132-.113-.13-.114-.13-.117-.128-.118-.127-.119-.124-.12-.124-.123-.123-.124-.12-.124-.119-.127-.118-.128-.117-.13-.114-.13-.113-.132-.112-.134-.11-.135-.108-.136-.107-.138-.105-.139-.104-.14-.101-.141-.101-.143-.098-.144-.097-.145-.095-.146-.094-.148-.092-.149-.09-.15-.088-.151-.086-.153-.085-.153-.083-.155-.081-.156-.079-.157-.077-.157-.076-.16-.074-.16-.071-.161-.07-.162-.068-.164-.066-.164-.064-.165-.062-.166-.06-.167-.058-.168-.056-.169-.054-.17-.052-.171-.05-.171-.048-.173-.046-.174-.044-.174-.041-.175-.04-.176-.037-.176-.035-.178-.033-.178-.031-.179-.029-.179-.026-.181-.025-.181-.021-.182-.02-.182-.018-.183-.015-.183-.013-.185-.01-.184-.008-.186-.006-.186-.004-.186-.01-1.687h29.168l-.439 4.35zm-25.587-1.098.022.142.025.142.026.141.028.141.029.139.032.14.033.138.034.138.036.137.038.137.04.136.041.135.043.135.044.133.046.134.048.132.049.131.051.131.052.13.054.13.055.128.057.128.058.126.06.126.061.126.063.124.064.123.066.123.067.122.069.121.07.119.071.12.073.118.074.117.075.116.077.115.079.115.079.113.081.112.082.112.084.11.084.109.087.108.087.107.088.106.091.105.091.105.092.102.093.102.095.1.096.1.097.098.098.097.1.096.101.095.101.093.102.092.105.092.105.09.106.088.106.087.109.086.11.086.109.083.112.082.112.081.113.079.115.079.115.077.116.075.117.074.118.073.119.071.12.07.121.069.122.067.122.066.124.064.125.063.125.061.125.06.127.058.128.057.129.056.129.053.13.052.131.051.131.049.132.048.133.046.134.044.135.043.135.041.136.039.137.039.137.036.138.034.138.033.14.032.14.029.14.028.141.026.142.025.142.022.143.021.143.019.145.018.144.015.146.014.146.012.145.011.148.008.147.007.148.004.148.003.149.001.13-.001.131-.002.129-.003.128-.005.129-.007.128-.008.128-.009.128-.011.126-.012.128-.013.126-.015.125-.016.126-.017.124-.019.124-.02.126-.022.122-.022.123-.024.122-.026.123-.027.122-.028.12-.029.121-.03.12-.032.12-.033.118-.034.119-.036.118-.037.117-.038.117-.039.116-.041.116-.041.114-.043.115-.044.115-.046.113-.046.113-.048.112-.048.111-.05.111-.051.11-.052.11-.054.108-.054.11-.056.107-.057.107-.057.106-.059.106-.06.105-.062.105-.062.102-.063.103-.064.103-.066.101-.066.1-.067.101-.069.099-.07.098-.07.098-.072.097-.072.096-.074.095-.074.094-.076.094-.076.093-.078.092-.078.092-.08.089-.08.09-.081.089-.082.088-.083.087-.084.085-.085.085-.086.085-.087.084-.087.082-.088.081-.09.081-.09.079-.091.079-.091.078-.093.077-.093.076-.095.074-.095.074-.096.073-.097.072-.097.071-.098.07-.099.069-.1.068-.101.066-.101.066-.101.065-.103.064-.104.062-.104.062-.105.06-.105.059-.106.059-.107.057-.108.056-.108.055-.109.054-.11.052-.11.051-.11.051-.112.049-.112.048-.113.047-.113.046-.114.044-.115.044-.115.042-.115.041-.117.04-.116.038-.118.037-.117.036-.119.035-.119.034-.119.032-.121.031-.12.03-.121.028-.122.027-.122.011-.051.09-.888h-22.744l.015.109z" fill="#e74b3c"/><path d="m120 77h-120v-34h120zm-116-30v26h112v-26z" fill="#e0e5e6"/></svg>